<svg xmlns="http://www.w3.org/2000/svg" xmlns:xlink="http://www.w3.org/1999/xlink" width="5248" height="5152"><g transform="translate(1296 1696)"><path d="M0 0h1360v1760H0z" fill="#fff"/><path d="M400 785c0-2.76 2.24-5 5-5h350c2.76 0 5 2.24 5 5v1110c0 2.76-2.24 5-5 5H405c-2.76 0-5-2.24-5-5z" stroke="#000" stroke-width="2" fill="#fff"/><path d="M400 818h360m-360 619h360" stroke="#000" stroke-width="2" fill="none"/><use xlink:href="#a" transform="matrix(1,0,0,1,408,780) translate(122.525 22.6)"/><use xlink:href="#b" transform="matrix(1,0,0,1,412,825.6) translate(0 24.799999999999862)"/><use xlink:href="#c" transform="matrix(1,0,0,1,412,825.6) translate(10.95 24.799999999999862)"/><use xlink:href="#d" transform="matrix(1,0,0,1,412,825.6) translate(67.9 24.799999999999862)"/><use xlink:href="#e" transform="matrix(1,0,0,1,412,825.6) translate(77.9 24.799999999999862)"/><use xlink:href="#b" transform="matrix(1,0,0,1,412,825.6) translate(0 46.399999999999864)"/><use xlink:href="#f" transform="matrix(1,0,0,1,412,825.6) translate(10.95 46.399999999999864)"/><use xlink:href="#e" transform="matrix(1,0,0,1,412,825.6) translate(66.85 46.399999999999864)"/><use xlink:href="#b" transform="matrix(1,0,0,1,412,825.6) translate(0 67.99999999999987)"/><use xlink:href="#g" transform="matrix(1,0,0,1,412,825.6) translate(10.95 67.99999999999987)"/><use xlink:href="#d" transform="matrix(1,0,0,1,412,825.6) translate(94.7 67.99999999999987)"/><use xlink:href="#h" transform="matrix(1,0,0,1,412,825.6) translate(104.7 67.99999999999987)"/><use xlink:href="#i" transform="matrix(1,0,0,1,412,825.6) translate(128.65 67.99999999999987)"/><use xlink:href="#b" transform="matrix(1,0,0,1,412,825.6) translate(0 89.59999999999988)"/><use xlink:href="#j" transform="matrix(1,0,0,1,412,825.6) translate(10.95 89.59999999999988)"/><use xlink:href="#k" transform="matrix(1,0,0,1,412,825.6) translate(84.85000000000001 89.59999999999988)"/><use xlink:href="#l" transform="matrix(1,0,0,1,412,825.6) translate(0 111.19999999999987)"/><use xlink:href="#m" transform="matrix(1,0,0,1,412,825.6) translate(99.75000000000001 111.19999999999987)"/><use xlink:href="#n" transform="matrix(1,0,0,1,412,825.6) translate(0 132.79999999999987)"/><use xlink:href="#m" transform="matrix(1,0,0,1,412,825.6) translate(112.80000000000001 132.79999999999987)"/><use xlink:href="#o" transform="matrix(1,0,0,1,412,825.6) translate(0 154.39999999999986)"/><use xlink:href="#p" transform="matrix(1,0,0,1,412,825.6) translate(0 175.99999999999986)"/><use xlink:href="#q" transform="matrix(1,0,0,1,412,825.6) translate(0 197.59999999999985)"/><use xlink:href="#r" transform="matrix(1,0,0,1,412,825.6) translate(0 219.19999999999985)"/><use xlink:href="#s" transform="matrix(1,0,0,1,412,825.6) translate(0 240.79999999999984)"/><use xlink:href="#t" transform="matrix(1,0,0,1,412,825.6) translate(0 262.3999999999998)"/><use xlink:href="#u" transform="matrix(1,0,0,1,412,825.6) translate(0 283.99999999999983)"/><use xlink:href="#v" transform="matrix(1,0,0,1,412,825.6) translate(0 305.59999999999985)"/><use xlink:href="#w" transform="matrix(1,0,0,1,412,825.6) translate(0 327.1999999999999)"/><use xlink:href="#x" transform="matrix(1,0,0,1,412,825.6) translate(109.85 327.1999999999999)"/><use xlink:href="#y" transform="matrix(1,0,0,1,412,825.6) translate(0 348.7999999999999)"/><use xlink:href="#z" transform="matrix(1,0,0,1,412,825.6) translate(0 370.3999999999999)"/><use xlink:href="#u" transform="matrix(1,0,0,1,412,825.6) translate(0 391.99999999999994)"/><use xlink:href="#A" transform="matrix(1,0,0,1,412,825.6) translate(0 413.59999999999997)"/><use xlink:href="#B" transform="matrix(1,0,0,1,412,825.6) translate(0 435.2)"/><use xlink:href="#C" transform="matrix(1,0,0,1,412,825.6) translate(85.15 435.2)"/><use xlink:href="#D" transform="matrix(1,0,0,1,412,825.6) translate(133.15 435.2)"/><use xlink:href="#E" transform="matrix(1,0,0,1,412,825.6) translate(165.05 435.2)"/><use xlink:href="#F" transform="matrix(1,0,0,1,412,825.6) translate(198 435.2)"/><use xlink:href="#G" transform="matrix(1,0,0,1,412,825.6) translate(0 456.8)"/><use xlink:href="#H" transform="matrix(1,0,0,1,412,825.6) translate(0 478.40000000000003)"/><use xlink:href="#I" transform="matrix(1,0,0,1,412,825.6) translate(0 500.00000000000006)"/><use xlink:href="#u" transform="matrix(1,0,0,1,412,825.6) translate(0 521.6000000000001)"/><use xlink:href="#u" transform="matrix(1,0,0,1,412,825.6) translate(0 543.2)"/><use xlink:href="#J" transform="matrix(1,0,0,1,412,825.6) translate(0 564.8000000000001)"/><use xlink:href="#K" transform="matrix(1,0,0,1,412,825.6) translate(75.4 564.8000000000001)"/><use xlink:href="#L" transform="matrix(1,0,0,1,412,825.6) translate(0 586.4000000000001)"/><use xlink:href="#M" transform="matrix(1,0,0,1,412,1444.9411764705883) translate(0 22.39999999999994)"/><use xlink:href="#N" transform="matrix(1,0,0,1,412,1444.9411764705883) translate(0 43.99999999999994)"/><use xlink:href="#O" transform="matrix(1,0,0,1,412,1444.9411764705883) translate(0 65.59999999999995)"/><use xlink:href="#I" transform="matrix(1,0,0,1,412,1444.9411764705883) translate(0 87.19999999999996)"/><use xlink:href="#I" transform="matrix(1,0,0,1,412,1444.9411764705883) translate(0 108.79999999999995)"/><use xlink:href="#P" transform="matrix(1,0,0,1,412,1444.9411764705883) translate(0 130.39999999999995)"/><use xlink:href="#I" transform="matrix(1,0,0,1,412,1444.9411764705883) translate(0 151.99999999999994)"/><use xlink:href="#I" transform="matrix(1,0,0,1,412,1444.9411764705883) translate(0 173.59999999999994)"/><use xlink:href="#I" transform="matrix(1,0,0,1,412,1444.9411764705883) translate(0 195.19999999999993)"/><use xlink:href="#Q" transform="matrix(1,0,0,1,412,1444.9411764705883) translate(0 216.79999999999993)"/><use xlink:href="#I" transform="matrix(1,0,0,1,412,1444.9411764705883) translate(0 238.39999999999992)"/><use xlink:href="#I" transform="matrix(1,0,0,1,412,1444.9411764705883) translate(0 259.9999999999999)"/><use xlink:href="#I" transform="matrix(1,0,0,1,412,1444.9411764705883) translate(0 281.5999999999999)"/><use xlink:href="#I" transform="matrix(1,0,0,1,412,1444.9411764705883) translate(0 303.19999999999993)"/><use xlink:href="#I" transform="matrix(1,0,0,1,412,1444.9411764705883) translate(0 324.79999999999995)"/><use xlink:href="#R" transform="matrix(1,0,0,1,412,1444.9411764705883) translate(0 346.4)"/><use xlink:href="#I" transform="matrix(1,0,0,1,412,1444.9411764705883) translate(0 368)"/><use xlink:href="#S" transform="matrix(1,0,0,1,412,1444.9411764705883) translate(0 389.6)"/><use xlink:href="#T" transform="matrix(1,0,0,1,412,1444.9411764705883) translate(0 411.20000000000005)"/><use xlink:href="#U" transform="matrix(1,0,0,1,412,1444.9411764705883) translate(0 432.80000000000007)"/><path d="M-600-175c0-2.76 2.24-5 5-5h150c2.76 0 5 2.24 5 5v58c0 2.76-2.24 5-5 5h-150c-2.76 0-5-2.24-5-5z" stroke="#000" stroke-width="2" fill="#fff"/><use xlink:href="#V" transform="matrix(1,0,0,1,-600,-180) translate(59.08 37.775)"/><path d="M580 780V339.5c0-2.76-2.24-5-5-5H-519.15c-2.76 0-5-2.24-5-5V-111" stroke="#000" stroke-width="2" fill="none"/><path d="M-519.5-96.73h-9.3l4.65-14.27z"/><path d="M-518.14-95.73h-12.02l5.28-16.27h1.46zm-9.27-2h6.5l-3.25-10.03z"/><path d="M761 1832.97h35c2.76 0 5 2.24 5 5v25.64c0 2.77-2.24 5-5 5h-35" stroke="#000" stroke-width="2" fill="none"/><path d="M761 1833.97h-1v-2h1zM775.27 1873.24L761 1868.6l14.27-4.63z"/><path d="M776.27 1874.62l-16.27-5.3v-1.44l16.27-5.3zm-12.03-6l10.03 3.24v-6.5z"/><path d="M-420 1465c0-2.76 2.24-5 5-5h350c2.76 0 5 2.24 5 5v230c0 2.76-2.24 5-5 5h-350c-2.76 0-5-2.24-5-5z" stroke="#000" stroke-width="2" fill="#fff"/><path d="M-420 1498h360m-360 101h360" stroke="#000" stroke-width="2" fill="none"/><use xlink:href="#W" transform="matrix(1,0,0,1,-412,1460) translate(152.025 22.6)"/><use xlink:href="#X" transform="matrix(1,0,0,1,-408,1505.6) translate(0 35.8)"/><use xlink:href="#Y" transform="matrix(1,0,0,1,-408,1505.6) translate(61.95 35.8)"/><use xlink:href="#Z" transform="matrix(1,0,0,1,-408,1505.6) translate(0 57.4)"/><use xlink:href="#aa" transform="matrix(1,0,0,1,-408,1505.6) translate(80.9 57.4)"/><use xlink:href="#ab" transform="matrix(1,0,0,1,-408,1606.8) translate(0 35.8)"/><use xlink:href="#ac" transform="matrix(1,0,0,1,-408,1606.8) translate(80.35000000000001 35.8)"/><use xlink:href="#h" transform="matrix(1,0,0,1,-408,1606.8) translate(174.15000000000003 35.8)"/><use xlink:href="#ad" transform="matrix(1,0,0,1,-408,1606.8) translate(198.10000000000002 35.8)"/><use xlink:href="#ae" transform="matrix(1,0,0,1,-408,1606.8) translate(0 57.4)"/><use xlink:href="#af" transform="matrix(1,0,0,1,-408,1606.8) translate(117.35000000000001 57.4)"/><use xlink:href="#ag" transform="matrix(1,0,0,1,-408,1606.8) translate(155.3 57.4)"/><path d="M-480 405c0-2.76 2.24-5 5-5h150c2.76 0 5 2.24 5 5v110c0 2.76-2.24 5-5 5h-150c-2.76 0-5-2.24-5-5z" stroke="#000" stroke-width="2" fill="#fff"/><use xlink:href="#ah" transform="matrix(1,0,0,1,-480,400) translate(54.005 63.15)"/><path d="M-240 1460V995c0-2.76-2.24-5-5-5h-150c-2.76 0-5-2.24-5-5V520" stroke="#000" stroke-width="2" fill="none"/><path d="M-395.36 534.27h-9.28L-400 520z"/><path d="M-394 535.27h-12l4.95-15.27h2.1zm-9.26-2h6.52l-3.26-10.03z"/><path d="M2160-575c0-2.76 2.24-5 5-5h830c2.76 0 5 2.24 5 5v330c0 2.76-2.24 5-5 5h-830c-2.76 0-5-2.24-5-5z" stroke="#000" stroke-width="2" fill="#fff"/><path d="M2160-542h840m-840 203h840" stroke="#000" stroke-width="2" fill="none"/><g><use xlink:href="#ai" transform="matrix(1,0,0,1,2168,-580) translate(399.5 22.6)"/></g><g><use xlink:href="#aj" transform="matrix(1,0,0,1,2172,-534.4) translate(0 32.800000000000004)"/><use xlink:href="#ak" transform="matrix(1,0,0,1,2172,-534.4) translate(72.95 32.800000000000004)"/><use xlink:href="#al" transform="matrix(1,0,0,1,2172,-534.4) translate(0 54.400000000000006)"/><use xlink:href="#ak" transform="matrix(1,0,0,1,2172,-534.4) translate(88 54.400000000000006)"/><use xlink:href="#am" transform="matrix(1,0,0,1,2172,-534.4) translate(0 76.00000000000001)"/><use xlink:href="#d" transform="matrix(1,0,0,1,2172,-534.4) translate(126.60000000000001 76.00000000000001)"/><use xlink:href="#m" transform="matrix(1,0,0,1,2172,-534.4) translate(136.60000000000002 76.00000000000001)"/><use xlink:href="#an" transform="matrix(1,0,0,1,2172,-534.4) translate(0 97.60000000000002)"/><use xlink:href="#h" transform="matrix(1,0,0,1,2172,-534.4) translate(56 97.60000000000002)"/><use xlink:href="#ao" transform="matrix(1,0,0,1,2172,-534.4) translate(79.95 97.60000000000002)"/><use xlink:href="#ap" transform="matrix(1,0,0,1,2172,-534.4) translate(0 119.20000000000002)"/><use xlink:href="#h" transform="matrix(1,0,0,1,2172,-534.4) translate(53 119.20000000000002)"/><use xlink:href="#aq" transform="matrix(1,0,0,1,2172,-534.4) translate(76.95 119.20000000000002)"/><use xlink:href="#ar" transform="matrix(1,0,0,1,2172,-534.4) translate(0 140.8)"/><use xlink:href="#as" transform="matrix(1,0,0,1,2172,-534.4) translate(34 140.8)"/><use xlink:href="#at" transform="matrix(1,0,0,1,2172,-534.4) translate(0 162.4)"/><use xlink:href="#au" transform="matrix(1,0,0,1,2172,-534.4) translate(62.9 162.4)"/></g><g><use xlink:href="#av" transform="matrix(1,0,0,1,2172,-330.5238709677419) translate(0 23.5)"/><use xlink:href="#aw" transform="matrix(1,0,0,1,2172,-330.5238709677419) translate(0 45.1)"/><use xlink:href="#ax" transform="matrix(1,0,0,1,2172,-330.5238709677419) translate(166.2 45.1)"/><use xlink:href="#ay" transform="matrix(1,0,0,1,2172,-330.5238709677419) translate(202.79999999999998 45.1)"/><use xlink:href="#ae" transform="matrix(1,0,0,1,2172,-330.5238709677419) translate(0 66.7)"/><use xlink:href="#az" transform="matrix(1,0,0,1,2172,-330.5238709677419) translate(117.35000000000001 66.7)"/><use xlink:href="#h" transform="matrix(1,0,0,1,2172,-330.5238709677419) translate(162.25 66.7)"/><use xlink:href="#aA" transform="matrix(1,0,0,1,2172,-330.5238709677419) translate(186.2 66.7)"/><use xlink:href="#h" transform="matrix(1,0,0,1,2172,-330.5238709677419) translate(259.1 66.7)"/><use xlink:href="#aB" transform="matrix(1,0,0,1,2172,-330.5238709677419) translate(283.05 66.7)"/><use xlink:href="#h" transform="matrix(1,0,0,1,2172,-330.5238709677419) translate(329 66.7)"/><use xlink:href="#aC" transform="matrix(1,0,0,1,2172,-330.5238709677419) translate(352.95 66.7)"/><use xlink:href="#h" transform="matrix(1,0,0,1,2172,-330.5238709677419) translate(410.8 66.7)"/><use xlink:href="#aD" transform="matrix(1,0,0,1,2172,-330.5238709677419) translate(434.75 66.7)"/><use xlink:href="#h" transform="matrix(1,0,0,1,2172,-330.5238709677419) translate(497.65 66.7)"/><use xlink:href="#aE" transform="matrix(1,0,0,1,2172,-330.5238709677419) translate(521.6 66.7)"/><use xlink:href="#h" transform="matrix(1,0,0,1,2172,-330.5238709677419) translate(612.5 66.7)"/><use xlink:href="#aF" transform="matrix(1,0,0,1,2172,-330.5238709677419) translate(636.45 66.7)"/><use xlink:href="#h" transform="matrix(1,0,0,1,2172,-330.5238709677419) translate(700.4000000000001 66.7)"/><use xlink:href="#aG" transform="matrix(1,0,0,1,2172,-330.5238709677419) translate(724.3500000000001 66.7)"/></g><path d="M-40-475c0-2.76 2.24-5 5-5h150c2.76 0 5 2.24 5 5v110c0 2.76-2.24 5-5 5H-35c-2.76 0-5-2.24-5-5z" stroke="#000" stroke-width="2" fill="#fff"/><g><use xlink:href="#aH" transform="matrix(1,0,0,1,-40,-480) translate(36.55499999999999 63.15)"/></g><path d="M2580-580v-35c0-2.76-2.24-5-5-5H165c-2.76 0-5 2.24-5 5v190c0 2.76-2.24 5-5 5h-35" stroke="#000" stroke-width="2" fill="none"/><path d="M134.27-415.36L120-420l14.27-4.64z"/><path d="M135.27-414L120-418.94v-2.1l15.27-4.96zm-12.03-6l10.03 3.26v-6.52z"/><path d="M-40-420h-245c-2.76 0-5 2.24-5 5v264c0 2.76-2.24 5-5 5h-145" stroke="#000" stroke-width="2" fill="none"/><path d="M-425.73-141.36L-440-146l14.27-4.64z"/><path d="M-424.73-140l-15.27-4.95v-2.1l15.27-4.96zm-12.03-6l10.03 3.26v-6.52z"/><path d="M-760-735c0-2.76 2.24-5 5-5h150c2.76 0 5 2.24 5 5v90c0 2.76-2.24 5-5 5h-150c-2.76 0-5-2.24-5-5z" stroke="#000" stroke-width="2" fill="#fff"/><g><use xlink:href="#aI" transform="matrix(1,0,0,1,-760,-740) translate(55.555 55.025)"/></g><path d="M2700.56-581.42V-725c0-2.76-2.24-5-5-5H-575c-2.76 0-5 2.24-5 5v30c0 2.76-2.24 5-5 5h-15" stroke="#000" stroke-width="2" fill="none"/><path d="M2701.56-580h-2v-1.42h2zM-585.73-685.36L-600-690l14.27-4.64z"/><path d="M-584.73-684l-15.27-4.95v-2.1l15.27-4.96zm-12.03-6l10.03 3.26v-6.52z"/><path d="M-1140-455c0-2.76 2.24-5 5-5h150c2.76 0 5 2.24 5 5v110c0 2.76-2.24 5-5 5h-150c-2.76 0-5-2.24-5-5z" stroke="#000" stroke-width="2" fill="#fff"/><g><use xlink:href="#aJ" transform="matrix(1,0,0,1,-1140,-460) translate(54.029999999999994 63.15)"/></g><path d="M-507.67-181v-74.5c0-2.76-2.24-5-5-5H-1055c-2.76 0-5-2.24-5-5V-340" stroke="#000" stroke-width="2" fill="none"/><path d="M-506.67-180h-2v-1h2zM-1055.36-325.73h-9.28L-1060-340z"/><path d="M-1054-324.73h-12l4.95-15.27h2.1zm-9.26-2h6.52l-3.26-10.03z"/><path d="M-760-690h-105c-2.76 0-5 2.24-5 5v280c0 2.76-2.24 5-5 5h-105" stroke="#000" stroke-width="2" fill="none"/><path d="M-965.73-395.36L-980-400l14.27-4.64z"/><path d="M-964.73-394l-15.27-4.95v-2.1l15.27-4.96zm-12.03-6l10.03 3.26v-6.52z"/><path d="M761 1577.37h35c2.76 0 5-2.23 5-5V1565c0-2.76-2.24-5-5-5s-5 2.24-5 5v9.87c0 1.4-1.12 2.5-2.5 2.5s-2.5-1.1-2.5-2.5V1565c0-2.76 2.24-5 5-5h1234c2.76 0 5-2.24 5-5V-544.95c0-2.76 2.24-5 5-5h124" stroke="#000" stroke-width="2" fill="none"/><path d="M761 1578.37h-1v-2h1zM2159-549.95l-14.27 4.63v-9.27z"/><path d="M2160-550.68v1.46l-16.27 5.28v-12.02zm-14.27 4l10.03-3.27-10.03-3.26z"/><path d="M399 1512.67h-35c-2.76 0-5 2.24-5 5v45.3c0 2.75 2.24 5 5 5h35" stroke="#000" stroke-width="2" fill="none"/><path d="M400 1513.67h-1v-2h1zM399 1567.96l-14.27 4.64v-9.27z"/><path d="M400 1567.24v1.45l-16.27 5.27v-12.02zm-14.27 3.98l10.03-3.26-10.03-3.26z"/><path d="M-400 400v-60.5m0 0c2.76 0 5-2.24 5-5s-2.24-5-5-5V149c0-2.76-2.24-5-5-5h-110c-2.76 0-5-2.24-5-5v-251" stroke="#000" stroke-width="2" fill="none"/><path d="M-515.36-97.73h-9.28L-520-112z"/><path d="M-514-96.73h-12l4.95-15.27h2.1zm-9.26-2h6.52l-3.26-10.03z"/><path d="M399 1571.1H175c-2.76 0-5-2.25-5-5v-71.9c0-2.76-2.24-5-5-5H-59" stroke="#000" stroke-width="2" fill="none"/><path d="M400 1572.1h-1v-2h1zM-44.73 1493.84L-59 1489.2l14.27-4.63z"/><path d="M-43.73 1495.22l-16.27-5.3v-1.44l16.27-5.3zm-12.03-6.02l10.03 3.26v-6.5z"/><path d="M-80-155c0-2.76 2.24-5 5-5H75c2.76 0 5 2.24 5 5v110c0 2.76-2.24 5-5 5H-75c-2.76 0-5-2.24-5-5z" stroke="#000" stroke-width="2" fill="#fff"/><g><use xlink:href="#aK" transform="matrix(1,0,0,1,-80,-160) translate(38.029999999999994 63.15)"/><use xlink:href="#aL" transform="matrix(1,0,0,1,-80,-160) translate(92.97999999999999 63.15)"/></g><path d="M-80-100h-358.02c-2.77 0-5-2.24-5-5v-6.3" stroke="#000" stroke-width="2" fill="none"/><path d="M-434.2-99.2l-8.8 2.9-.02-15z"/><path d="M-432.57-98.66L-444-94.93l-.03-17.23.6-.1.62-.44zm-9.43.98l6.2-2.03-6.22-8.53z"/><path d="M1380-255c0-2.76 2.24-5 5-5h350c2.76 0 5 2.24 5 5v590c0 2.76-2.24 5-5 5h-350c-2.76 0-5-2.24-5-5z" stroke="#000" stroke-width="2" fill="#fff"/><path d="M1380-222h360M1380-96h360" stroke="#000" stroke-width="2" fill="none"/><g><use xlink:href="#aM" transform="matrix(1,0,0,1,1388,-260) translate(126.05 22.6)"/></g><g><use xlink:href="#aN" transform="matrix(1,0,0,1,1392,-214.4) translate(0 15.899999999999993)"/><use xlink:href="#d" transform="matrix(1,0,0,1,1392,-214.4) translate(56.95 15.899999999999993)"/><use xlink:href="#m" transform="matrix(1,0,0,1,1392,-214.4) translate(66.95 15.899999999999993)"/><use xlink:href="#aO" transform="matrix(1,0,0,1,1392,-214.4) translate(0 37.49999999999999)"/><use xlink:href="#d" transform="matrix(1,0,0,1,1392,-214.4) translate(83.75 37.49999999999999)"/><use xlink:href="#m" transform="matrix(1,0,0,1,1392,-214.4) translate(93.75 37.49999999999999)"/><use xlink:href="#aP" transform="matrix(1,0,0,1,1392,-214.4) translate(0 59.099999999999994)"/><use xlink:href="#aQ" transform="matrix(1,0,0,1,1392,-214.4) translate(64.9 59.099999999999994)"/><use xlink:href="#aR" transform="matrix(1,0,0,1,1392,-214.4) translate(0 80.70000000000002)"/><use xlink:href="#aS" transform="matrix(1,0,0,1,1392,-214.4) translate(36.9 80.70000000000002)"/><use xlink:href="#aT" transform="matrix(1,0,0,1,1392,-214.4) translate(0 102.30000000000001)"/><use xlink:href="#aU" transform="matrix(1,0,0,1,1392,-214.4) translate(30 102.30000000000001)"/></g><g><use xlink:href="#aV" transform="matrix(1,0,0,1,1392,-87.69651162790699) translate(0 19.199999999999953)"/><use xlink:href="#aW" transform="matrix(1,0,0,1,1392,-87.69651162790699) translate(15.5 19.199999999999953)"/><use xlink:href="#I" transform="matrix(1,0,0,1,1392,-87.69651162790699) translate(0 40.799999999999955)"/><use xlink:href="#aX" transform="matrix(1,0,0,1,1392,-87.69651162790699) translate(0 62.399999999999956)"/><use xlink:href="#aY" transform="matrix(1,0,0,1,1392,-87.69651162790699) translate(132.3 62.399999999999956)"/><use xlink:href="#aZ" transform="matrix(1,0,0,1,1392,-87.69651162790699) translate(170.25 62.399999999999956)"/><use xlink:href="#I" transform="matrix(1,0,0,1,1392,-87.69651162790699) translate(0 83.99999999999997)"/><use xlink:href="#ba" transform="matrix(1,0,0,1,1392,-87.69651162790699) translate(0 105.59999999999997)"/><use xlink:href="#I" transform="matrix(1,0,0,1,1392,-87.69651162790699) translate(0 127.19999999999996)"/><use xlink:href="#bb" transform="matrix(1,0,0,1,1392,-87.69651162790699) translate(0 148.79999999999995)"/><use xlink:href="#I" transform="matrix(1,0,0,1,1392,-87.69651162790699) translate(0 170.39999999999995)"/><use xlink:href="#bc" transform="matrix(1,0,0,1,1392,-87.69651162790699) translate(0 191.99999999999994)"/><use xlink:href="#I" transform="matrix(1,0,0,1,1392,-87.69651162790699) translate(0 213.59999999999994)"/><use xlink:href="#bd" transform="matrix(1,0,0,1,1392,-87.69651162790699) translate(0 235.19999999999993)"/><use xlink:href="#I" transform="matrix(1,0,0,1,1392,-87.69651162790699) translate(0 256.7999999999999)"/><use xlink:href="#be" transform="matrix(1,0,0,1,1392,-87.69651162790699) translate(0 278.3999999999999)"/><use xlink:href="#bf" transform="matrix(1,0,0,1,1392,-87.69651162790699) translate(63.85000000000001 278.3999999999999)"/><use xlink:href="#aZ" transform="matrix(1,0,0,1,1392,-87.69651162790699) translate(111.80000000000001 278.3999999999999)"/><use xlink:href="#I" transform="matrix(1,0,0,1,1392,-87.69651162790699) translate(0 299.99999999999994)"/><use xlink:href="#I" transform="matrix(1,0,0,1,1392,-87.69651162790699) translate(0 321.59999999999997)"/><use xlink:href="#bg" transform="matrix(1,0,0,1,1392,-87.69651162790699) translate(0 343.2)"/><use xlink:href="#I" transform="matrix(1,0,0,1,1392,-87.69651162790699) translate(0 364.8)"/><use xlink:href="#I" transform="matrix(1,0,0,1,1392,-87.69651162790699) translate(0 386.40000000000003)"/><use xlink:href="#bh" transform="matrix(1,0,0,1,1392,-87.69651162790699) translate(0 408.00000000000006)"/></g><path d="M80-100h185c2.76 0 5-2.24 5-5v-240c0-2.76 2.24-5 5-5h1360c2.76 0 5 2.24 5 5v40c0 2.76-2.24 5-5 5h-70c-2.76 0-5 2.24-5 5v35" stroke="#000" stroke-width="2" fill="none"/><path d="M1560-260l-4.64-14.27h9.28z"/><path d="M1561.05-260h-2.1l-4.96-15.27h12zm-4.3-13.27l3.25 10.03 3.26-10.03z"/><path d="M761 1550.67h15c2.76 0 5-2.24 5-5V1385c0-2.76 2.24-5 5-5h299c2.76 0 5-2.24 5-5V-317.03c0-2.76 2.24-5 5-5h239c2.76 0 5 2.24 5 5v90c0 2.76 2.24 5 5 5h35" stroke="#000" stroke-width="2" fill="none"/><path d="M761 1551.67h-1v-2h1zM1379-222.03l-14.27 4.64v-9.26z"/><path d="M1380-222.76v1.46l-16.27 5.28v-12.02zm-14.27 4l10.03-3.27-10.03-3.26z"/><path d="M399 1484.67h-35c-2.76 0-5 2.24-5 5v66c0 2.76 2.24 5 5 5h35" stroke="#000" stroke-width="2" fill="none"/><path d="M400 1485.67h-1v-2h1zM399 1560.67l-14.27 4.63v-9.27z"/><path d="M400 1559.94v1.45l-16.27 5.28v-12.03zm-14.27 4l10.03-3.27-10.03-3.26z"/><path d="M399 1656.52H-59" stroke="#000" stroke-width="2" fill="none"/><path d="M400 1657.52h-1v-2h1zM-44.73 1661.15l-14.27-4.63 14.27-4.64z"/><path d="M-43.73 1662.53l-16.27-5.3v-1.44l16.27-5.3zm-12.03-6l10.03 3.25v-6.52z"/><path d="M761 1784.25h2275c2.76 0 5-2.24 5-5v-2065.3c0-2.76-2.24-5-5-5h-35" stroke="#000" stroke-width="2" fill="none"/><path d="M761 1785.25h-1v-2h1zM3015.27-286.42l-14.27-4.63 14.27-4.64z"/><path d="M3016.27-285.04l-16.27-5.3v-1.44l16.27-5.28zm-12.03-6l10.03 3.25v-6.5z"/><defs><path d="M205 0l-28-72H64L36 0H1l101-248h38L239 0h-34zm-38-99l-47-123c-12 45-31 82-46 123h93" id="bi"/><path d="M117-194c89-4 53 116 60 194h-32v-121c0-31-8-49-39-48C34-167 62-67 57 0H25l-1-190h30c1 10-1 24 2 32 11-22 29-35 61-36" id="bj"/><path d="M141-36C126-15 110 5 73 4 37 3 15-17 15-53c-1-64 63-63 125-63 3-35-9-54-41-54-24 1-41 7-42 31l-33-3c5-37 33-52 76-52 45 0 72 20 72 64v82c-1 20 7 32 28 27v20c-31 9-61-2-59-35zM48-53c0 20 12 33 32 33 41-3 63-29 60-74-43 2-92-5-92 41" id="bk"/><path d="M30-248c87 1 191-15 191 75 0 78-77 80-158 76V0H30v-248zm33 125c57 0 124 11 124-50 0-59-68-47-124-48v98" id="bl"/><path d="M100-194c63 0 86 42 84 106H49c0 40 14 67 53 68 26 1 43-12 49-29l28 8c-11 28-37 45-77 45C44 4 14-33 15-96c1-61 26-98 85-98zm52 81c6-60-76-77-97-28-3 7-6 17-6 28h103" id="bm"/><path d="M96-169c-40 0-48 33-48 73s9 75 48 75c24 0 41-14 43-38l32 2c-6 37-31 61-74 61-59 0-76-41-82-99-10-93 101-131 147-64 4 7 5 14 7 22l-32 3c-4-21-16-35-41-35" id="bn"/><path d="M114-163C36-179 61-72 57 0H25l-1-190h30c1 12-1 29 2 39 6-27 23-49 58-41v29" id="bo"/><g id="a"><use transform="matrix(0.05,0,0,0.05,0,0)" xlink:href="#bi"/><use transform="matrix(0.05,0,0,0.05,12,0)" xlink:href="#bj"/><use transform="matrix(0.05,0,0,0.05,22,0)" xlink:href="#bk"/><use transform="matrix(0.05,0,0,0.05,32,0)" xlink:href="#bl"/><use transform="matrix(0.05,0,0,0.05,44,0)" xlink:href="#bm"/><use transform="matrix(0.05,0,0,0.05,54,0)" xlink:href="#bj"/><use transform="matrix(0.05,0,0,0.05,64,0)" xlink:href="#bn"/><use transform="matrix(0.05,0,0,0.05,73,0)" xlink:href="#bm"/><use transform="matrix(0.05,0,0,0.05,83,0)" xlink:href="#bo"/><use transform="matrix(0.05,0,0,0.05,88.95,0)" xlink:href="#bm"/></g><path d="M16-82v-28h88v28H16" id="bp"/><use transform="matrix(0.05,0,0,0.05,0,0)" xlink:href="#bp" id="b"/><path d="M135-143c-3-34-86-38-87 0 15 53 115 12 119 90S17 21 10-45l28-5c4 36 97 45 98 0-10-56-113-15-118-90-4-57 82-63 122-42 12 7 21 19 24 35" id="bq"/><path d="M24-231v-30h32v30H24zM24 0v-190h32V0H24" id="br"/><path d="M179-190L93 31C79 59 56 82 12 73V49c39 6 53-20 64-50L1-190h34L92-34l54-156h33" id="bs"/><g id="c"><use transform="matrix(0.05,0,0,0.05,0,0)" xlink:href="#bq"/><use transform="matrix(0.05,0,0,0.05,9,0)" xlink:href="#bk"/><use transform="matrix(0.05,0,0,0.05,19,0)" xlink:href="#bj"/><use transform="matrix(0.05,0,0,0.05,29,0)" xlink:href="#br"/><use transform="matrix(0.05,0,0,0.05,32.95,0)" xlink:href="#bs"/><use transform="matrix(0.05,0,0,0.05,41.95,0)" xlink:href="#bm"/></g><path d="M33-154v-36h34v36H33zM33 0v-36h34V0H33" id="bt"/><use transform="matrix(0.05,0,0,0.05,0,0)" xlink:href="#bt" id="d"/><path d="M59-47c-2 24 18 29 38 22v24C64 9 27 4 27-40v-127H5v-23h24l9-43h21v43h35v23H59v120" id="bu"/><path d="M18-150v-26h174v26H18zm0 90v-26h174v26H18" id="bv"/><path d="M101-251c68 0 85 55 85 127S166 4 100 4C33 4 14-52 14-124c0-73 17-127 87-127zm-1 229c47 0 54-49 54-102s-4-102-53-102c-51 0-55 48-55 102 0 53 5 102 54 102" id="bw"/><g id="e"><use transform="matrix(0.05,0,0,0.05,0,0)" xlink:href="#br"/><use transform="matrix(0.05,0,0,0.05,3.95,0)" xlink:href="#bj"/><use transform="matrix(0.05,0,0,0.05,13.949999999999998,0)" xlink:href="#bu"/><use transform="matrix(0.05,0,0,0.05,18.95,0)" xlink:href="#bv"/><use transform="matrix(0.05,0,0,0.05,29.450000000000003,0)" xlink:href="#bw"/></g><path d="M24 0v-261h32V0H24" id="bx"/><g id="f"><use transform="matrix(0.05,0,0,0.05,0,0)" xlink:href="#bq"/><use transform="matrix(0.05,0,0,0.05,9,0)" xlink:href="#bk"/><use transform="matrix(0.05,0,0,0.05,19,0)" xlink:href="#bx"/><use transform="matrix(0.05,0,0,0.05,22.95,0)" xlink:href="#br"/><use transform="matrix(0.05,0,0,0.05,26.899999999999995,0)" xlink:href="#bq"/><use transform="matrix(0.05,0,0,0.05,35.9,0)" xlink:href="#bm"/><use transform="matrix(0.05,0,0,0.05,45.9,0)" xlink:href="#bt"/></g><path d="M210-169c-67 3-38 105-44 169h-31v-121c0-29-5-50-35-48C34-165 62-65 56 0H25l-1-190h30c1 10-1 24 2 32 10-44 99-50 107 0 11-21 27-35 58-36 85-2 47 119 55 194h-31v-121c0-29-5-49-35-48" id="by"/><g id="g"><use transform="matrix(0.05,0,0,0.05,0,0)" xlink:href="#by"/><use transform="matrix(0.05,0,0,0.05,14.950000000000001,0)" xlink:href="#br"/><use transform="matrix(0.05,0,0,0.05,18.900000000000002,0)" xlink:href="#bx"/><use transform="matrix(0.05,0,0,0.05,22.85,0)" xlink:href="#br"/><use transform="matrix(0.05,0,0,0.05,26.8,0)" xlink:href="#bq"/><use transform="matrix(0.05,0,0,0.05,35.8,0)" xlink:href="#bk"/><use transform="matrix(0.05,0,0,0.05,45.8,0)" xlink:href="#bj"/><use transform="matrix(0.05,0,0,0.05,55.79999999999999,0)" xlink:href="#br"/><use transform="matrix(0.05,0,0,0.05,59.75,0)" xlink:href="#bs"/><use transform="matrix(0.05,0,0,0.05,68.75,0)" xlink:href="#bm"/></g><g id="h"><use transform="matrix(0.05,0,0,0.05,0,0)" xlink:href="#br"/><use transform="matrix(0.05,0,0,0.05,3.95,0)" xlink:href="#bj"/><use transform="matrix(0.05,0,0,0.05,13.949999999999998,0)" xlink:href="#bu"/></g><g id="i"><use transform="matrix(0.05,0,0,0.05,0,0)" xlink:href="#bv"/><use transform="matrix(0.05,0,0,0.05,10.5,0)" xlink:href="#bw"/></g><path d="M143 0L79-87 56-68V0H24v-261h32v163l83-92h37l-77 82L181 0h-38" id="bz"/><path d="M100-194c62-1 85 37 85 99 1 63-27 99-86 99S16-35 15-95c0-66 28-99 85-99zM99-20c44 1 53-31 53-75 0-43-8-75-51-75s-53 32-53 75 10 74 51 75" id="bA"/><path d="M101-251c82-7 93 87 43 132L82-64C71-53 59-42 53-27h129V0H18c2-99 128-94 128-182 0-28-16-43-45-43s-46 15-49 41l-32-3c6-41 34-60 81-64" id="bB"/><g id="j"><use transform="matrix(0.05,0,0,0.05,0,0)" xlink:href="#bz"/><use transform="matrix(0.05,0,0,0.05,9,0)" xlink:href="#bA"/><use transform="matrix(0.05,0,0,0.05,19,0)" xlink:href="#bj"/><use transform="matrix(0.05,0,0,0.05,29,0)" xlink:href="#bu"/><use transform="matrix(0.05,0,0,0.05,34,0)" xlink:href="#bo"/><use transform="matrix(0.05,0,0,0.05,39.95,0)" xlink:href="#bA"/><use transform="matrix(0.05,0,0,0.05,49.95,0)" xlink:href="#bx"/><use transform="matrix(0.05,0,0,0.05,53.900000000000006,0)" xlink:href="#bB"/><use transform="matrix(0.05,0,0,0.05,63.900000000000006,0)" xlink:href="#bt"/></g><path d="M115-194c53 0 69 39 70 98 0 66-23 100-70 100C84 3 66-7 56-30L54 0H23l1-261h32v101c10-23 28-34 59-34zm-8 174c40 0 45-34 45-75 0-40-5-75-45-74-42 0-51 32-51 76 0 43 10 73 51 73" id="bC"/><path d="M84 4C-5 8 30-112 23-190h32v120c0 31 7 50 39 49 72-2 45-101 50-169h31l1 190h-30c-1-10 1-25-2-33-11 22-28 36-60 37" id="bD"/><path d="M68-36c1 33-1 63-14 82H32c9-13 17-26 17-46H33v-36h35zM33-154v-36h35v36H33" id="bE"/><g id="k"><use transform="matrix(0.05,0,0,0.05,0,0)" xlink:href="#bC"/><use transform="matrix(0.05,0,0,0.05,10,0)" xlink:href="#bA"/><use transform="matrix(0.05,0,0,0.05,20,0)" xlink:href="#bA"/><use transform="matrix(0.05,0,0,0.05,30,0)" xlink:href="#bx"/><use transform="matrix(0.05,0,0,0.05,33.95,0)" xlink:href="#bv"/><use transform="matrix(0.05,0,0,0.05,44.45,0)" xlink:href="#bu"/><use transform="matrix(0.05,0,0,0.05,49.45,0)" xlink:href="#bo"/><use transform="matrix(0.05,0,0,0.05,55.400000000000006,0)" xlink:href="#bD"/><use transform="matrix(0.05,0,0,0.05,65.4,0)" xlink:href="#bm"/><use transform="matrix(0.05,0,0,0.05,75.4,0)" xlink:href="#bE"/></g><path d="M177-190C167-65 218 103 67 71c-23-6-38-20-44-43l32-5c15 47 100 32 89-28v-30C133-14 115 1 83 1 29 1 15-40 15-95c0-56 16-97 71-98 29-1 48 16 59 35 1-10 0-23 2-32h30zM94-22c36 0 50-32 50-73 0-42-14-75-50-75-39 0-46 34-46 75s6 73 46 73" id="bF"/><path d="M115-194c55 1 70 41 70 98S169 2 115 4C84 4 66-9 55-30l1 105H24l-1-265h31l2 30c10-21 28-34 59-34zm-8 174c40 0 45-34 45-75s-6-73-45-74c-42 0-51 32-51 76 0 43 10 73 51 73" id="bG"/><g id="l"><use transform="matrix(0.05,0,0,0.05,0,0)" xlink:href="#bp"/><use transform="matrix(0.05,0,0,0.05,5.95,0)" xlink:href="#bF"/><use transform="matrix(0.05,0,0,0.05,15.949999999999998,0)" xlink:href="#bm"/><use transform="matrix(0.05,0,0,0.05,25.950000000000003,0)" xlink:href="#bj"/><use transform="matrix(0.05,0,0,0.05,35.95,0)" xlink:href="#br"/><use transform="matrix(0.05,0,0,0.05,39.900000000000006,0)" xlink:href="#bq"/><use transform="matrix(0.05,0,0,0.05,48.900000000000006,0)" xlink:href="#bx"/><use transform="matrix(0.05,0,0,0.05,52.85,0)" xlink:href="#br"/><use transform="matrix(0.05,0,0,0.05,56.80000000000001,0)" xlink:href="#bz"/><use transform="matrix(0.05,0,0,0.05,65.80000000000001,0)" xlink:href="#bG"/><use transform="matrix(0.05,0,0,0.05,75.80000000000001,0)" xlink:href="#bj"/><use transform="matrix(0.05,0,0,0.05,85.80000000000001,0)" xlink:href="#bx"/><use transform="matrix(0.05,0,0,0.05,89.75000000000001,0)" xlink:href="#bt"/></g><g id="m"><use transform="matrix(0.05,0,0,0.05,0,0)" xlink:href="#br"/><use transform="matrix(0.05,0,0,0.05,3.95,0)" xlink:href="#bj"/><use transform="matrix(0.05,0,0,0.05,13.949999999999998,0)" xlink:href="#bu"/></g><path d="M85 4C-4 8 31-112 24-190h32v120c0 31 7 50 39 49 72-2 45-101 50-169h31l1 190h-30c-1-10 1-25-2-33-11 22-28 36-60 37zm34-218v-33h29v33h-29zm-69 0v-33h29v33H50" id="bH"/><g id="n"><use transform="matrix(0.05,0,0,0.05,0,0)" xlink:href="#bp"/><use transform="matrix(0.05,0,0,0.05,5.95,0)" xlink:href="#bs"/><use transform="matrix(0.05,0,0,0.05,14.949999999999998,0)" xlink:href="#bH"/><use transform="matrix(0.05,0,0,0.05,24.95,0)" xlink:href="#bz"/><use transform="matrix(0.05,0,0,0.05,33.95,0)" xlink:href="#bq"/><use transform="matrix(0.05,0,0,0.05,42.95,0)" xlink:href="#bm"/><use transform="matrix(0.05,0,0,0.05,52.95,0)" xlink:href="#bz"/><use transform="matrix(0.05,0,0,0.05,61.95,0)" xlink:href="#bx"/><use transform="matrix(0.05,0,0,0.05,65.9,0)" xlink:href="#br"/><use transform="matrix(0.05,0,0,0.05,69.85000000000001,0)" xlink:href="#bz"/><use transform="matrix(0.05,0,0,0.05,78.85000000000001,0)" xlink:href="#bG"/><use transform="matrix(0.05,0,0,0.05,88.85000000000001,0)" xlink:href="#bj"/><use transform="matrix(0.05,0,0,0.05,98.85000000000001,0)" xlink:href="#bx"/><use transform="matrix(0.05,0,0,0.05,102.80000000000001,0)" xlink:href="#bt"/></g><path d="M127-220V0H93v-220H8v-28h204v28h-85" id="bI"/><path d="M106-169C34-169 62-67 57 0H25v-261h32l-1 103c12-21 28-36 61-36 89 0 53 116 60 194h-32v-121c2-32-8-49-39-48" id="bJ"/><g id="o"><use transform="matrix(0.05,0,0,0.05,0,0)" xlink:href="#bp"/><use transform="matrix(0.05,0,0,0.05,5.95,0)" xlink:href="#bk"/><use transform="matrix(0.05,0,0,0.05,15.949999999999998,0)" xlink:href="#bo"/><use transform="matrix(0.05,0,0,0.05,21.9,0)" xlink:href="#bz"/><use transform="matrix(0.05,0,0,0.05,30.899999999999995,0)" xlink:href="#bk"/><use transform="matrix(0.05,0,0,0.05,40.9,0)" xlink:href="#bI"/><use transform="matrix(0.05,0,0,0.05,49.85,0)" xlink:href="#bk"/><use transform="matrix(0.05,0,0,0.05,59.85,0)" xlink:href="#bJ"/><use transform="matrix(0.05,0,0,0.05,69.85,0)" xlink:href="#bu"/><use transform="matrix(0.05,0,0,0.05,74.85,0)" xlink:href="#bk"/></g><path d="M39-94c74 12-11 154 75 146v23c-44 4-70-10-70-52C44-23 55-84 6-82v-22c81 4-7-162 84-157h24v23c-82-15-2 131-75 144" id="bK"/><g id="p"><use transform="matrix(0.05,0,0,0.05,0,0)" xlink:href="#bp"/><use transform="matrix(0.05,0,0,0.05,5.95,0)" xlink:href="#bq"/><use transform="matrix(0.05,0,0,0.05,14.949999999999998,0)" xlink:href="#bz"/><use transform="matrix(0.05,0,0,0.05,23.95,0)" xlink:href="#bA"/><use transform="matrix(0.05,0,0,0.05,33.95,0)" xlink:href="#bo"/><use transform="matrix(0.05,0,0,0.05,39.900000000000006,0)" xlink:href="#bI"/><use transform="matrix(0.05,0,0,0.05,48.85000000000001,0)" xlink:href="#bk"/><use transform="matrix(0.05,0,0,0.05,58.85,0)" xlink:href="#bJ"/><use transform="matrix(0.05,0,0,0.05,68.85000000000001,0)" xlink:href="#bu"/><use transform="matrix(0.05,0,0,0.05,73.85000000000001,0)" xlink:href="#bk"/><use transform="matrix(0.05,0,0,0.05,83.85000000000001,0)" xlink:href="#bK"/></g><path d="M209 0H11v-25l151-195H24v-28h176v25L50-27h159V0" id="bL"/><g id="q"><use transform="matrix(0.05,0,0,0.05,0,0)" xlink:href="#bx"/><use transform="matrix(0.05,0,0,0.05,3.95,0)" xlink:href="#bC"/><use transform="matrix(0.05,0,0,0.05,13.949999999999998,0)" xlink:href="#bx"/><use transform="matrix(0.05,0,0,0.05,17.9,0)" xlink:href="#bL"/><use transform="matrix(0.05,0,0,0.05,28.85,0)" xlink:href="#bk"/><use transform="matrix(0.05,0,0,0.05,38.85,0)" xlink:href="#by"/><use transform="matrix(0.05,0,0,0.05,53.800000000000004,0)" xlink:href="#bk"/><use transform="matrix(0.05,0,0,0.05,63.800000000000004,0)" xlink:href="#bj"/><use transform="matrix(0.05,0,0,0.05,73.80000000000001,0)" xlink:href="#bK"/></g><path d="M141 0L90-78 38 0H4l68-98-65-92h35l48 74 47-74h35l-64 92 68 98h-35" id="bM"/><path d="M109-170H84l-4-78h32zm-65 0H19l-4-78h33" id="bN"/><g id="r"><use transform="matrix(0.05,0,0,0.05,0,0)" xlink:href="#bu"/><use transform="matrix(0.05,0,0,0.05,5,0)" xlink:href="#bm"/><use transform="matrix(0.05,0,0,0.05,15,0)" xlink:href="#bM"/><use transform="matrix(0.05,0,0,0.05,24,0)" xlink:href="#bu"/><use transform="matrix(0.05,0,0,0.05,29,0)" xlink:href="#bv"/><use transform="matrix(0.05,0,0,0.05,39.5,0)" xlink:href="#bN"/><use transform="matrix(0.05,0,0,0.05,45.85,0)" xlink:href="#bw"/><use transform="matrix(0.05,0,0,0.05,55.85,0)" xlink:href="#bw"/><use transform="matrix(0.05,0,0,0.05,65.85,0)" xlink:href="#bt"/><use transform="matrix(0.05,0,0,0.05,70.85,0)" xlink:href="#bw"/><use transform="matrix(0.05,0,0,0.05,80.85,0)" xlink:href="#bw"/><use transform="matrix(0.05,0,0,0.05,90.85,0)" xlink:href="#bN"/></g><path d="M9 0v-24l116-142H16v-24h144v24L44-24h123V0H9" id="bO"/><path d="M64 0c3-98 48-159 88-221H18v-27h164v26C143-157 98-101 97 0H64" id="bP"/><path d="M68-38c1 34 0 65-14 84H32c9-13 17-26 17-46H33v-38h35" id="bQ"/><g id="s"><use transform="matrix(0.05,0,0,0.05,0,0)" xlink:href="#bq"/><use transform="matrix(0.05,0,0,0.05,9,0)" xlink:href="#br"/><use transform="matrix(0.05,0,0,0.05,12.949999999999998,0)" xlink:href="#bO"/><use transform="matrix(0.05,0,0,0.05,21.95,0)" xlink:href="#bm"/><use transform="matrix(0.05,0,0,0.05,31.950000000000003,0)" xlink:href="#bv"/><use transform="matrix(0.05,0,0,0.05,42.45,0)" xlink:href="#bP"/><use transform="matrix(0.05,0,0,0.05,52.45,0)" xlink:href="#bw"/><use transform="matrix(0.05,0,0,0.05,62.45,0)" xlink:href="#bQ"/><use transform="matrix(0.05,0,0,0.05,67.45,0)" xlink:href="#bB"/><use transform="matrix(0.05,0,0,0.05,77.45,0)" xlink:href="#bw"/><use transform="matrix(0.05,0,0,0.05,87.45,0)" xlink:href="#bE"/></g><path d="M145-31C134-9 116 4 85 4 32 4 16-35 15-94c0-59 17-99 70-100 32-1 48 14 60 33 0-11-1-24 2-32h30l-1 268h-32zM93-21c41 0 51-33 51-76s-8-73-50-73c-40 0-46 35-46 75s5 74 45 74" id="bR"/><g id="t"><use transform="matrix(0.05,0,0,0.05,0,0)" xlink:href="#bn"/><use transform="matrix(0.05,0,0,0.05,9,0)" xlink:href="#bA"/><use transform="matrix(0.05,0,0,0.05,19,0)" xlink:href="#bx"/><use transform="matrix(0.05,0,0,0.05,22.95,0)" xlink:href="#bA"/><use transform="matrix(0.05,0,0,0.05,32.95,0)" xlink:href="#bo"/><use transform="matrix(0.05,0,0,0.05,38.900000000000006,0)" xlink:href="#bv"/><use transform="matrix(0.05,0,0,0.05,49.400000000000006,0)" xlink:href="#bk"/><use transform="matrix(0.05,0,0,0.05,59.400000000000006,0)" xlink:href="#bR"/><use transform="matrix(0.05,0,0,0.05,69.4,0)" xlink:href="#bD"/><use transform="matrix(0.05,0,0,0.05,79.4,0)" xlink:href="#bk"/></g><path d="M76-40C78 24 84 88 6 75V52C86 64 9-79 80-94c-40-6-34-59-34-106 1-29-11-41-40-38v-23c44-4 70 10 70 52 0 47-12 108 38 105v22c-26 1-39 14-38 42" id="bS"/><use transform="matrix(0.05,0,0,0.05,0,0)" xlink:href="#bS" id="u"/><g id="v"><use transform="matrix(0.05,0,0,0.05,0,0)" xlink:href="#bq"/><use transform="matrix(0.05,0,0,0.05,9,0)" xlink:href="#bz"/><use transform="matrix(0.05,0,0,0.05,18,0)" xlink:href="#bu"/><use transform="matrix(0.05,0,0,0.05,23,0)" xlink:href="#bI"/><use transform="matrix(0.05,0,0,0.05,31.950000000000003,0)" xlink:href="#bk"/><use transform="matrix(0.05,0,0,0.05,41.95,0)" xlink:href="#bC"/><use transform="matrix(0.05,0,0,0.05,51.95,0)" xlink:href="#bm"/><use transform="matrix(0.05,0,0,0.05,61.95,0)" xlink:href="#bx"/><use transform="matrix(0.05,0,0,0.05,65.9,0)" xlink:href="#bk"/><use transform="matrix(0.05,0,0,0.05,75.9,0)" xlink:href="#bK"/></g><path d="M137-103V0h-34v-103L8-248h37l75 118 75-118h37" id="bT"/><g id="w"><use transform="matrix(0.05,0,0,0.05,0,0)" xlink:href="#bu"/><use transform="matrix(0.05,0,0,0.05,5,0)" xlink:href="#bm"/><use transform="matrix(0.05,0,0,0.05,15,0)" xlink:href="#bM"/><use transform="matrix(0.05,0,0,0.05,24,0)" xlink:href="#bu"/><use transform="matrix(0.05,0,0,0.05,29,0)" xlink:href="#bv"/><use transform="matrix(0.05,0,0,0.05,39.5,0)" xlink:href="#bN"/><use transform="matrix(0.05,0,0,0.05,45.85,0)" xlink:href="#bT"/><use transform="matrix(0.05,0,0,0.05,57.85,0)" xlink:href="#bH"/><use transform="matrix(0.05,0,0,0.05,67.85,0)" xlink:href="#bz"/><use transform="matrix(0.05,0,0,0.05,76.85,0)" xlink:href="#bq"/><use transform="matrix(0.05,0,0,0.05,85.85,0)" xlink:href="#bm"/><use transform="matrix(0.05,0,0,0.05,95.85,0)" xlink:href="#bz"/></g><path d="M185-189c-5-48-123-54-124 2 14 75 158 14 163 119 3 78-121 87-175 55-17-10-28-26-33-46l33-7c5 56 141 63 141-1 0-78-155-14-162-118-5-82 145-84 179-34 5 7 8 16 11 25" id="bU"/><g id="x"><use transform="matrix(0.05,0,0,0.05,0,0)" xlink:href="#bU"/><use transform="matrix(0.05,0,0,0.05,12,0)" xlink:href="#bz"/><use transform="matrix(0.05,0,0,0.05,21,0)" xlink:href="#bA"/><use transform="matrix(0.05,0,0,0.05,31,0)" xlink:href="#bo"/><use transform="matrix(0.05,0,0,0.05,36.95,0)" xlink:href="#bx"/><use transform="matrix(0.05,0,0,0.05,40.900000000000006,0)" xlink:href="#bk"/><use transform="matrix(0.05,0,0,0.05,50.900000000000006,0)" xlink:href="#bo"/><use transform="matrix(0.05,0,0,0.05,56.85,0)" xlink:href="#bN"/></g><path d="M126-127c33 6 58 20 58 59 0 88-139 92-164 29-3-8-5-16-6-25l32-3c6 27 21 44 54 44 32 0 52-15 52-46 0-38-36-46-79-43v-28c39 1 72-4 72-42 0-27-17-43-46-43-28 0-47 15-49 41l-32-3c6-42 35-63 81-64 48-1 79 21 79 65 0 36-21 52-52 59" id="bV"/><g id="y"><use transform="matrix(0.05,0,0,0.05,0,0)" xlink:href="#bq"/><use transform="matrix(0.05,0,0,0.05,9,0)" xlink:href="#br"/><use transform="matrix(0.05,0,0,0.05,12.949999999999998,0)" xlink:href="#bO"/><use transform="matrix(0.05,0,0,0.05,21.95,0)" xlink:href="#bm"/><use transform="matrix(0.05,0,0,0.05,31.950000000000003,0)" xlink:href="#bv"/><use transform="matrix(0.05,0,0,0.05,42.45,0)" xlink:href="#bB"/><use transform="matrix(0.05,0,0,0.05,52.45,0)" xlink:href="#bw"/><use transform="matrix(0.05,0,0,0.05,62.45,0)" xlink:href="#bw"/><use transform="matrix(0.05,0,0,0.05,72.45,0)" xlink:href="#bQ"/><use transform="matrix(0.05,0,0,0.05,77.45,0)" xlink:href="#bV"/><use transform="matrix(0.05,0,0,0.05,87.45,0)" xlink:href="#bw"/></g><g id="z"><use transform="matrix(0.05,0,0,0.05,0,0)" xlink:href="#bn"/><use transform="matrix(0.05,0,0,0.05,9,0)" xlink:href="#bA"/><use transform="matrix(0.05,0,0,0.05,19,0)" xlink:href="#bx"/><use transform="matrix(0.05,0,0,0.05,22.95,0)" xlink:href="#bA"/><use transform="matrix(0.05,0,0,0.05,32.95,0)" xlink:href="#bo"/><use transform="matrix(0.05,0,0,0.05,38.900000000000006,0)" xlink:href="#bv"/><use transform="matrix(0.05,0,0,0.05,49.400000000000006,0)" xlink:href="#bC"/><use transform="matrix(0.05,0,0,0.05,59.400000000000006,0)" xlink:href="#bx"/><use transform="matrix(0.05,0,0,0.05,63.35,0)" xlink:href="#bk"/><use transform="matrix(0.05,0,0,0.05,73.35000000000001,0)" xlink:href="#bn"/><use transform="matrix(0.05,0,0,0.05,82.35000000000001,0)" xlink:href="#bz"/></g><g id="A"><use transform="matrix(0.05,0,0,0.05,0,0)" xlink:href="#bs"/><use transform="matrix(0.05,0,0,0.05,9,0)" xlink:href="#bk"/><use transform="matrix(0.05,0,0,0.05,19,0)" xlink:href="#bO"/><use transform="matrix(0.05,0,0,0.05,28,0)" xlink:href="#br"/><use transform="matrix(0.05,0,0,0.05,31.950000000000003,0)" xlink:href="#bK"/></g><g id="B"><use transform="matrix(0.05,0,0,0.05,0,0)" xlink:href="#bu"/><use transform="matrix(0.05,0,0,0.05,5,0)" xlink:href="#bm"/><use transform="matrix(0.05,0,0,0.05,15,0)" xlink:href="#bM"/><use transform="matrix(0.05,0,0,0.05,24,0)" xlink:href="#bu"/><use transform="matrix(0.05,0,0,0.05,29,0)" xlink:href="#bv"/><use transform="matrix(0.05,0,0,0.05,39.5,0)" xlink:href="#bN"/><use transform="matrix(0.05,0,0,0.05,45.85,0)" xlink:href="#bT"/><use transform="matrix(0.05,0,0,0.05,56.2,0)" xlink:href="#bm"/><use transform="matrix(0.05,0,0,0.05,66.2,0)" xlink:href="#bj"/><use transform="matrix(0.05,0,0,0.05,76.2,0)" xlink:href="#br"/></g><path d="M140-251c81 0 123 46 123 126C263-46 219 4 140 4 59 4 17-45 17-125s42-126 123-126zm0 227c63 0 89-41 89-101s-29-99-89-99c-61 0-89 39-89 99S79-25 140-24" id="bW"/><g id="C"><use transform="matrix(0.05,0,0,0.05,0,0)" xlink:href="#bW"/><use transform="matrix(0.05,0,0,0.05,14,0)" xlink:href="#bs"/><use transform="matrix(0.05,0,0,0.05,23,0)" xlink:href="#bD"/><use transform="matrix(0.05,0,0,0.05,33,0)" xlink:href="#bj"/></g><path d="M96-169c-40 0-48 33-48 73s9 75 48 75c24 0 41-14 43-38l32 2c-6 37-31 61-74 61-59 0-76-41-82-99-10-93 101-131 147-64 4 7 5 14 7 22l-32 3c-4-21-16-35-41-35zm3 187c19-1 33 8 33 26 0 31-30 33-64 32V58c18 2 39 4 41-13 1-15-18-13-34-13L87 0h19" id="bX"/><g id="D"><use transform="matrix(0.05,0,0,0.05,0,0)" xlink:href="#br"/><use transform="matrix(0.05,0,0,0.05,3.95,0)" xlink:href="#bX"/><use transform="matrix(0.05,0,0,0.05,12.949999999999998,0)" xlink:href="#br"/><use transform="matrix(0.05,0,0,0.05,16.9,0)" xlink:href="#bj"/></g><g id="E"><use transform="matrix(0.05,0,0,0.05,0,0)" xlink:href="#bI"/><use transform="matrix(0.05,0,0,0.05,8.950000000000001,0)" xlink:href="#bm"/><use transform="matrix(0.05,0,0,0.05,18.950000000000003,0)" xlink:href="#bz"/></g><path d="M34 0v-190h32V0H34" id="bY"/><g id="F"><use transform="matrix(0.05,0,0,0.05,0,0)" xlink:href="#bI"/><use transform="matrix(0.05,0,0,0.05,10.950000000000001,0)" xlink:href="#bY"/><use transform="matrix(0.05,0,0,0.05,15.950000000000001,0)" xlink:href="#bz"/><use transform="matrix(0.05,0,0,0.05,24.950000000000003,0)" xlink:href="#bN"/></g><path d="M54-142c48-35 137-8 131 61C196 18 31 33 14-55l32-4c7 23 22 37 52 37 35-1 51-22 54-58 4-55-73-65-99-34H22l8-134h141v27H59" id="bZ"/><g id="G"><use transform="matrix(0.05,0,0,0.05,0,0)" xlink:href="#bq"/><use transform="matrix(0.05,0,0,0.05,9,0)" xlink:href="#br"/><use transform="matrix(0.05,0,0,0.05,12.949999999999998,0)" xlink:href="#bO"/><use transform="matrix(0.05,0,0,0.05,21.95,0)" xlink:href="#bm"/><use transform="matrix(0.05,0,0,0.05,31.950000000000003,0)" xlink:href="#bv"/><use transform="matrix(0.05,0,0,0.05,42.45,0)" xlink:href="#bV"/><use transform="matrix(0.05,0,0,0.05,52.45,0)" xlink:href="#bZ"/><use transform="matrix(0.05,0,0,0.05,62.45,0)" xlink:href="#bw"/><use transform="matrix(0.05,0,0,0.05,72.45,0)" xlink:href="#bQ"/><use transform="matrix(0.05,0,0,0.05,77.45,0)" xlink:href="#bB"/><use transform="matrix(0.05,0,0,0.05,87.45,0)" xlink:href="#bZ"/></g><path d="M206 0h-36l-40-164L89 0H53L-1-190h32L70-26l43-164h34l41 164 42-164h31" id="ca"/><g id="H"><use transform="matrix(0.05,0,0,0.05,0,0)" xlink:href="#bn"/><use transform="matrix(0.05,0,0,0.05,9,0)" xlink:href="#bA"/><use transform="matrix(0.05,0,0,0.05,19,0)" xlink:href="#bx"/><use transform="matrix(0.05,0,0,0.05,22.95,0)" xlink:href="#bA"/><use transform="matrix(0.05,0,0,0.05,32.95,0)" xlink:href="#bo"/><use transform="matrix(0.05,0,0,0.05,38.900000000000006,0)" xlink:href="#bv"/><use transform="matrix(0.05,0,0,0.05,49.400000000000006,0)" xlink:href="#ca"/><use transform="matrix(0.05,0,0,0.05,62.35,0)" xlink:href="#bJ"/><use transform="matrix(0.05,0,0,0.05,72.35000000000001,0)" xlink:href="#br"/><use transform="matrix(0.05,0,0,0.05,76.30000000000001,0)" xlink:href="#bu"/><use transform="matrix(0.05,0,0,0.05,81.30000000000001,0)" xlink:href="#bm"/><use transform="matrix(0.05,0,0,0.05,91.30000000000001,0)" xlink:href="#bE"/></g><g id="J"><use transform="matrix(0.05,0,0,0.05,0,0)" xlink:href="#bp"/><use transform="matrix(0.05,0,0,0.05,5.95,0)" xlink:href="#bO"/><use transform="matrix(0.05,0,0,0.05,14.949999999999998,0)" xlink:href="#bk"/><use transform="matrix(0.05,0,0,0.05,24.95,0)" xlink:href="#by"/><use transform="matrix(0.05,0,0,0.05,39.9,0)" xlink:href="#bk"/><use transform="matrix(0.05,0,0,0.05,49.9,0)" xlink:href="#bj"/><use transform="matrix(0.05,0,0,0.05,59.900000000000006,0)" xlink:href="#bv"/></g><g id="K"><use transform="matrix(0.05,0,0,0.05,0,0)" xlink:href="#bu"/><use transform="matrix(0.05,0,0,0.05,5,0)" xlink:href="#br"/><use transform="matrix(0.05,0,0,0.05,8.95,0)" xlink:href="#by"/><use transform="matrix(0.05,0,0,0.05,23.9,0)" xlink:href="#bm"/><use transform="matrix(0.05,0,0,0.05,33.9,0)" xlink:href="#bo"/></g><g id="L"><use transform="matrix(0.05,0,0,0.05,0,0)" xlink:href="#bp"/><use transform="matrix(0.05,0,0,0.05,5.95,0)" xlink:href="#bq"/><use transform="matrix(0.05,0,0,0.05,14.949999999999998,0)" xlink:href="#bk"/><use transform="matrix(0.05,0,0,0.05,24.95,0)" xlink:href="#bs"/><use transform="matrix(0.05,0,0,0.05,33.95,0)" xlink:href="#bk"/><use transform="matrix(0.05,0,0,0.05,43.95,0)" xlink:href="#bn"/><use transform="matrix(0.05,0,0,0.05,52.95,0)" xlink:href="#bv"/><use transform="matrix(0.05,0,0,0.05,63.45,0)" xlink:href="#bu"/><use transform="matrix(0.05,0,0,0.05,68.45,0)" xlink:href="#br"/><use transform="matrix(0.05,0,0,0.05,72.4,0)" xlink:href="#by"/><use transform="matrix(0.05,0,0,0.05,87.35000000000001,0)" xlink:href="#bm"/><use transform="matrix(0.05,0,0,0.05,97.35000000000001,0)" xlink:href="#bo"/></g><path d="M87 75C49 33 22-17 22-94c0-76 28-126 65-167h31c-38 41-64 92-64 168S80 34 118 75H87" id="cb"/><path d="M33-261c38 41 65 92 65 168S71 34 33 75H2C39 34 66-17 66-93S39-220 2-261h31" id="cc"/><g id="M"><use transform="matrix(0.05,0,0,0.05,0,0)" xlink:href="#bi"/><use transform="matrix(0.05,0,0,0.05,12,0)" xlink:href="#bj"/><use transform="matrix(0.05,0,0,0.05,22,0)" xlink:href="#bk"/><use transform="matrix(0.05,0,0,0.05,32,0)" xlink:href="#bl"/><use transform="matrix(0.05,0,0,0.05,44,0)" xlink:href="#bm"/><use transform="matrix(0.05,0,0,0.05,54,0)" xlink:href="#bj"/><use transform="matrix(0.05,0,0,0.05,64,0)" xlink:href="#bn"/><use transform="matrix(0.05,0,0,0.05,73,0)" xlink:href="#bm"/><use transform="matrix(0.05,0,0,0.05,83,0)" xlink:href="#bo"/><use transform="matrix(0.05,0,0,0.05,88.95,0)" xlink:href="#bm"/><use transform="matrix(0.05,0,0,0.05,98.95,0)" xlink:href="#cb"/><use transform="matrix(0.05,0,0,0.05,104.9,0)" xlink:href="#cc"/></g><path d="M63-220v92h138v28H63V0H30v-248h175v28H63" id="cd"/><path d="M27 0v-27h64v-190l-56 39v-29l58-41h29v221h61V0H27" id="ce"/><path d="M-5 72V49h209v23H-5" id="cf"/><path d="M30 0v-248h33v221h125V0H30" id="cg"/><path d="M85-194c31 0 48 13 60 33l-1-100h32l1 261h-30c-2-10 0-23-3-31C134-8 116 4 85 4 32 4 16-35 15-94c0-66 23-100 70-100zm9 24c-40 0-46 34-46 75 0 40 6 74 45 74 42 0 51-32 51-76 0-42-9-74-50-73" id="ch"/><g id="N"><use transform="matrix(0.05,0,0,0.05,0,0)" xlink:href="#cd"/><use transform="matrix(0.05,0,0,0.05,10.950000000000001,0)" xlink:href="#bA"/><use transform="matrix(0.05,0,0,0.05,20.950000000000003,0)" xlink:href="#bo"/><use transform="matrix(0.05,0,0,0.05,26.900000000000002,0)" xlink:href="#by"/><use transform="matrix(0.05,0,0,0.05,41.85,0)" xlink:href="#ce"/><use transform="matrix(0.05,0,0,0.05,51.85,0)" xlink:href="#cf"/><use transform="matrix(0.05,0,0,0.05,61.85,0)" xlink:href="#cg"/><use transform="matrix(0.05,0,0,0.05,71.85,0)" xlink:href="#bA"/><use transform="matrix(0.05,0,0,0.05,81.85,0)" xlink:href="#bk"/><use transform="matrix(0.05,0,0,0.05,91.85,0)" xlink:href="#ch"/><use transform="matrix(0.05,0,0,0.05,101.85,0)" xlink:href="#cb"/><use transform="matrix(0.05,0,0,0.05,107.80000000000001,0)" xlink:href="#cc"/></g><path d="M212-179c-10-28-35-45-73-45-59 0-87 40-87 99 0 60 29 101 89 101 43 0 62-24 78-52l27 14C228-24 195 4 139 4 59 4 22-46 18-125c-6-104 99-153 187-111 19 9 31 26 39 46" id="ci"/><g id="O"><use transform="matrix(0.05,0,0,0.05,0,0)" xlink:href="#bi"/><use transform="matrix(0.05,0,0,0.05,12,0)" xlink:href="#bj"/><use transform="matrix(0.05,0,0,0.05,22,0)" xlink:href="#bk"/><use transform="matrix(0.05,0,0,0.05,32,0)" xlink:href="#bl"/><use transform="matrix(0.05,0,0,0.05,44,0)" xlink:href="#bm"/><use transform="matrix(0.05,0,0,0.05,54,0)" xlink:href="#bj"/><use transform="matrix(0.05,0,0,0.05,64,0)" xlink:href="#bn"/><use transform="matrix(0.05,0,0,0.05,73,0)" xlink:href="#bm"/><use transform="matrix(0.05,0,0,0.05,83,0)" xlink:href="#bo"/><use transform="matrix(0.05,0,0,0.05,88.95,0)" xlink:href="#bm"/><use transform="matrix(0.05,0,0,0.05,98.95,0)" xlink:href="#cf"/><use transform="matrix(0.05,0,0,0.05,108.95,0)" xlink:href="#bU"/><use transform="matrix(0.05,0,0,0.05,120.95,0)" xlink:href="#br"/><use transform="matrix(0.05,0,0,0.05,124.9,0)" xlink:href="#bO"/><use transform="matrix(0.05,0,0,0.05,133.9,0)" xlink:href="#bm"/><use transform="matrix(0.05,0,0,0.05,143.9,0)" xlink:href="#ci"/><use transform="matrix(0.05,0,0,0.05,156.85,0)" xlink:href="#bJ"/><use transform="matrix(0.05,0,0,0.05,166.85,0)" xlink:href="#bk"/><use transform="matrix(0.05,0,0,0.05,176.85,0)" xlink:href="#bj"/><use transform="matrix(0.05,0,0,0.05,186.85,0)" xlink:href="#bF"/><use transform="matrix(0.05,0,0,0.05,196.85,0)" xlink:href="#bm"/><use transform="matrix(0.05,0,0,0.05,206.85000000000002,0)" xlink:href="#ch"/><use transform="matrix(0.05,0,0,0.05,216.85000000000002,0)" xlink:href="#cb"/><use transform="matrix(0.05,0,0,0.05,222.79999999999995,0)" xlink:href="#cc"/></g><g id="P"><use transform="matrix(0.05,0,0,0.05,0,0)" xlink:href="#bA"/><use transform="matrix(0.05,0,0,0.05,10,0)" xlink:href="#bx"/><use transform="matrix(0.05,0,0,0.05,13.949999999999998,0)" xlink:href="#bD"/><use transform="matrix(0.05,0,0,0.05,23.95,0)" xlink:href="#bq"/><use transform="matrix(0.05,0,0,0.05,32.95,0)" xlink:href="#bu"/><use transform="matrix(0.05,0,0,0.05,37.95,0)" xlink:href="#bD"/><use transform="matrix(0.05,0,0,0.05,47.95,0)" xlink:href="#bo"/><use transform="matrix(0.05,0,0,0.05,53.900000000000006,0)" xlink:href="#cb"/><use transform="matrix(0.05,0,0,0.05,59.85,0)" xlink:href="#cc"/></g><path d="M240 0l2-218c-23 76-54 145-80 218h-23L58-218 59 0H30v-248h44l77 211c21-75 51-140 76-211h43V0h-30" id="cj"/><path d="M108 0H70L1-190h34L89-25l56-165h34" id="ck"/><g id="Q"><use transform="matrix(0.05,0,0,0.05,0,0)" xlink:href="#bk"/><use transform="matrix(0.05,0,0,0.05,10,0)" xlink:href="#bo"/><use transform="matrix(0.05,0,0,0.05,15.949999999999998,0)" xlink:href="#bz"/><use transform="matrix(0.05,0,0,0.05,24.95,0)" xlink:href="#bk"/><use transform="matrix(0.05,0,0,0.05,34.95,0)" xlink:href="#bI"/><use transform="matrix(0.05,0,0,0.05,43.900000000000006,0)" xlink:href="#bk"/><use transform="matrix(0.05,0,0,0.05,53.900000000000006,0)" xlink:href="#bJ"/><use transform="matrix(0.05,0,0,0.05,63.900000000000006,0)" xlink:href="#bu"/><use transform="matrix(0.05,0,0,0.05,68.9,0)" xlink:href="#bk"/><use transform="matrix(0.05,0,0,0.05,78.9,0)" xlink:href="#cf"/><use transform="matrix(0.05,0,0,0.05,88.9,0)" xlink:href="#cj"/><use transform="matrix(0.05,0,0,0.05,103.85000000000001,0)" xlink:href="#bA"/><use transform="matrix(0.05,0,0,0.05,113.85000000000001,0)" xlink:href="#bD"/><use transform="matrix(0.05,0,0,0.05,123.85000000000001,0)" xlink:href="#bq"/><use transform="matrix(0.05,0,0,0.05,132.85000000000002,0)" xlink:href="#bm"/><use transform="matrix(0.05,0,0,0.05,142.85000000000002,0)" xlink:href="#cj"/><use transform="matrix(0.05,0,0,0.05,157.8,0)" xlink:href="#bA"/><use transform="matrix(0.05,0,0,0.05,167.8,0)" xlink:href="#ck"/><use transform="matrix(0.05,0,0,0.05,176.8,0)" xlink:href="#bm"/><use transform="matrix(0.05,0,0,0.05,186.8,0)" xlink:href="#cb"/><use transform="matrix(0.05,0,0,0.05,192.75,0)" xlink:href="#cc"/></g><g id="R"><use transform="matrix(0.05,0,0,0.05,0,0)" xlink:href="#bk"/><use transform="matrix(0.05,0,0,0.05,10,0)" xlink:href="#bo"/><use transform="matrix(0.05,0,0,0.05,15.949999999999998,0)" xlink:href="#bz"/><use transform="matrix(0.05,0,0,0.05,24.95,0)" xlink:href="#bk"/><use transform="matrix(0.05,0,0,0.05,34.95,0)" xlink:href="#bI"/><use transform="matrix(0.05,0,0,0.05,43.900000000000006,0)" xlink:href="#bk"/><use transform="matrix(0.05,0,0,0.05,53.900000000000006,0)" xlink:href="#bJ"/><use transform="matrix(0.05,0,0,0.05,63.900000000000006,0)" xlink:href="#bu"/><use transform="matrix(0.05,0,0,0.05,68.9,0)" xlink:href="#bk"/><use transform="matrix(0.05,0,0,0.05,78.9,0)" xlink:href="#cf"/><use transform="matrix(0.05,0,0,0.05,88.9,0)" xlink:href="#cj"/><use transform="matrix(0.05,0,0,0.05,103.85000000000001,0)" xlink:href="#bA"/><use transform="matrix(0.05,0,0,0.05,113.85000000000001,0)" xlink:href="#bD"/><use transform="matrix(0.05,0,0,0.05,123.85000000000001,0)" xlink:href="#bq"/><use transform="matrix(0.05,0,0,0.05,132.85000000000002,0)" xlink:href="#bm"/><use transform="matrix(0.05,0,0,0.05,142.85000000000002,0)" xlink:href="#ci"/><use transform="matrix(0.05,0,0,0.05,155.8,0)" xlink:href="#bx"/><use transform="matrix(0.05,0,0,0.05,159.75,0)" xlink:href="#br"/><use transform="matrix(0.05,0,0,0.05,163.7,0)" xlink:href="#bn"/><use transform="matrix(0.05,0,0,0.05,172.7,0)" xlink:href="#bz"/><use transform="matrix(0.05,0,0,0.05,181.7,0)" xlink:href="#cb"/><use transform="matrix(0.05,0,0,0.05,187.64999999999998,0)" xlink:href="#cc"/></g><g id="S"><use transform="matrix(0.05,0,0,0.05,0,0)" xlink:href="#bq"/><use transform="matrix(0.05,0,0,0.05,9,0)" xlink:href="#bz"/><use transform="matrix(0.05,0,0,0.05,18,0)" xlink:href="#bu"/><use transform="matrix(0.05,0,0,0.05,23,0)" xlink:href="#bI"/><use transform="matrix(0.05,0,0,0.05,31.950000000000003,0)" xlink:href="#bk"/><use transform="matrix(0.05,0,0,0.05,41.95,0)" xlink:href="#bC"/><use transform="matrix(0.05,0,0,0.05,51.95,0)" xlink:href="#bm"/><use transform="matrix(0.05,0,0,0.05,61.95,0)" xlink:href="#bx"/><use transform="matrix(0.05,0,0,0.05,65.9,0)" xlink:href="#bk"/><use transform="matrix(0.05,0,0,0.05,75.9,0)" xlink:href="#cf"/><use transform="matrix(0.05,0,0,0.05,85.9,0)" xlink:href="#ci"/><use transform="matrix(0.05,0,0,0.05,98.85000000000001,0)" xlink:href="#bx"/><use transform="matrix(0.05,0,0,0.05,102.80000000000001,0)" xlink:href="#br"/><use transform="matrix(0.05,0,0,0.05,106.75,0)" xlink:href="#bn"/><use transform="matrix(0.05,0,0,0.05,115.75,0)" xlink:href="#bz"/><use transform="matrix(0.05,0,0,0.05,124.75,0)" xlink:href="#cb"/><use transform="matrix(0.05,0,0,0.05,130.70000000000002,0)" xlink:href="#cc"/></g><g id="T"><use transform="matrix(0.05,0,0,0.05,0,0)" xlink:href="#bO"/><use transform="matrix(0.05,0,0,0.05,9,0)" xlink:href="#bk"/><use transform="matrix(0.05,0,0,0.05,19,0)" xlink:href="#by"/><use transform="matrix(0.05,0,0,0.05,33.95,0)" xlink:href="#bk"/><use transform="matrix(0.05,0,0,0.05,43.95,0)" xlink:href="#bj"/><use transform="matrix(0.05,0,0,0.05,53.95,0)" xlink:href="#cf"/><use transform="matrix(0.05,0,0,0.05,63.95,0)" xlink:href="#bI"/><use transform="matrix(0.05,0,0,0.05,74.25,0)" xlink:href="#br"/><use transform="matrix(0.05,0,0,0.05,78.2,0)" xlink:href="#bn"/><use transform="matrix(0.05,0,0,0.05,87.2,0)" xlink:href="#bz"/><use transform="matrix(0.05,0,0,0.05,96.2,0)" xlink:href="#cb"/><use transform="matrix(0.05,0,0,0.05,102.15,0)" xlink:href="#cc"/></g><g id="U"><use transform="matrix(0.05,0,0,0.05,0,0)" xlink:href="#bq"/><use transform="matrix(0.05,0,0,0.05,9,0)" xlink:href="#bk"/><use transform="matrix(0.05,0,0,0.05,19,0)" xlink:href="#bs"/><use transform="matrix(0.05,0,0,0.05,28,0)" xlink:href="#bk"/><use transform="matrix(0.05,0,0,0.05,38,0)" xlink:href="#bn"/><use transform="matrix(0.05,0,0,0.05,47,0)" xlink:href="#cf"/><use transform="matrix(0.05,0,0,0.05,57,0)" xlink:href="#bI"/><use transform="matrix(0.05,0,0,0.05,67.3,0)" xlink:href="#br"/><use transform="matrix(0.05,0,0,0.05,71.25,0)" xlink:href="#bn"/><use transform="matrix(0.05,0,0,0.05,80.25,0)" xlink:href="#bz"/><use transform="matrix(0.05,0,0,0.05,89.25,0)" xlink:href="#cb"/><use transform="matrix(0.05,0,0,0.05,95.2,0)" xlink:href="#cc"/></g><g id="V"><use transform="matrix(0.05,0,0,0.05,0,0)" xlink:href="#cd"/><use transform="matrix(0.05,0,0,0.05,10.950000000000001,0)" xlink:href="#bA"/><use transform="matrix(0.05,0,0,0.05,20.950000000000003,0)" xlink:href="#bo"/><use transform="matrix(0.05,0,0,0.05,26.900000000000002,0)" xlink:href="#by"/></g><g id="W"><use transform="matrix(0.05,0,0,0.05,0,0)" xlink:href="#bo"/><use transform="matrix(0.05,0,0,0.05,5.95,0)" xlink:href="#bk"/><use transform="matrix(0.05,0,0,0.05,15.949999999999998,0)" xlink:href="#bz"/><use transform="matrix(0.05,0,0,0.05,24.95,0)" xlink:href="#bm"/><use transform="matrix(0.05,0,0,0.05,34.95,0)" xlink:href="#bu"/></g><path d="M195 0l-74-108L45 0H8l94-129-87-119h37l69 98 67-98h37l-84 118L233 0h-38" id="cl"/><g id="X"><use transform="matrix(0.05,0,0,0.05,0,0)" xlink:href="#bp"/><use transform="matrix(0.05,0,0,0.05,5.95,0)" xlink:href="#bz"/><use transform="matrix(0.05,0,0,0.05,14.949999999999998,0)" xlink:href="#bA"/><use transform="matrix(0.05,0,0,0.05,24.95,0)" xlink:href="#bj"/><use transform="matrix(0.05,0,0,0.05,34.95,0)" xlink:href="#bD"/><use transform="matrix(0.05,0,0,0.05,44.95,0)" xlink:href="#cl"/></g><g id="Y"><use transform="matrix(0.05,0,0,0.05,0,0)" xlink:href="#bt"/><use transform="matrix(0.05,0,0,0.05,5,0)" xlink:href="#br"/><use transform="matrix(0.05,0,0,0.05,8.95,0)" xlink:href="#bj"/><use transform="matrix(0.05,0,0,0.05,18.95,0)" xlink:href="#bu"/></g><g id="Z"><use transform="matrix(0.05,0,0,0.05,0,0)" xlink:href="#bp"/><use transform="matrix(0.05,0,0,0.05,5.95,0)" xlink:href="#bz"/><use transform="matrix(0.05,0,0,0.05,14.949999999999998,0)" xlink:href="#bA"/><use transform="matrix(0.05,0,0,0.05,24.95,0)" xlink:href="#bj"/><use transform="matrix(0.05,0,0,0.05,34.95,0)" xlink:href="#bD"/><use transform="matrix(0.05,0,0,0.05,44.95,0)" xlink:href="#by"/><use transform="matrix(0.05,0,0,0.05,59.900000000000006,0)" xlink:href="#bT"/><use transform="matrix(0.05,0,0,0.05,70.9,0)" xlink:href="#bt"/></g><g id="aa"><use transform="matrix(0.05,0,0,0.05,0,0)" xlink:href="#br"/><use transform="matrix(0.05,0,0,0.05,3.95,0)" xlink:href="#bj"/><use transform="matrix(0.05,0,0,0.05,13.949999999999998,0)" xlink:href="#bu"/></g><path d="M118-107v75H92v-75H18v-26h74v-75h26v75h74v26h-74" id="cm"/><g id="ab"><use transform="matrix(0.05,0,0,0.05,0,0)" xlink:href="#cm"/><use transform="matrix(0.05,0,0,0.05,10.5,0)" xlink:href="#bo"/><use transform="matrix(0.05,0,0,0.05,16.45,0)" xlink:href="#bk"/><use transform="matrix(0.05,0,0,0.05,26.450000000000003,0)" xlink:href="#bz"/><use transform="matrix(0.05,0,0,0.05,35.45,0)" xlink:href="#bm"/><use transform="matrix(0.05,0,0,0.05,45.45,0)" xlink:href="#bu"/><use transform="matrix(0.05,0,0,0.05,50.45,0)" xlink:href="#cb"/><use transform="matrix(0.05,0,0,0.05,56.400000000000006,0)" xlink:href="#br"/><use transform="matrix(0.05,0,0,0.05,60.35,0)" xlink:href="#bj"/><use transform="matrix(0.05,0,0,0.05,70.35000000000001,0)" xlink:href="#bu"/></g><g id="ac"><use transform="matrix(0.05,0,0,0.05,0,0)" xlink:href="#bF"/><use transform="matrix(0.05,0,0,0.05,10,0)" xlink:href="#bm"/><use transform="matrix(0.05,0,0,0.05,20,0)" xlink:href="#bj"/><use transform="matrix(0.05,0,0,0.05,30,0)" xlink:href="#br"/><use transform="matrix(0.05,0,0,0.05,33.95,0)" xlink:href="#bq"/><use transform="matrix(0.05,0,0,0.05,42.95,0)" xlink:href="#bx"/><use transform="matrix(0.05,0,0,0.05,46.900000000000006,0)" xlink:href="#br"/><use transform="matrix(0.05,0,0,0.05,50.85000000000001,0)" xlink:href="#bz"/><use transform="matrix(0.05,0,0,0.05,59.85,0)" xlink:href="#bG"/><use transform="matrix(0.05,0,0,0.05,69.85000000000001,0)" xlink:href="#bj"/><use transform="matrix(0.05,0,0,0.05,79.85000000000001,0)" xlink:href="#bx"/><use transform="matrix(0.05,0,0,0.05,83.80000000000001,0)" xlink:href="#bQ"/></g><g id="ad"><use transform="matrix(0.05,0,0,0.05,0,0)" xlink:href="#bs"/><use transform="matrix(0.05,0,0,0.05,9,0)" xlink:href="#bH"/><use transform="matrix(0.05,0,0,0.05,19,0)" xlink:href="#bz"/><use transform="matrix(0.05,0,0,0.05,28,0)" xlink:href="#bq"/><use transform="matrix(0.05,0,0,0.05,37,0)" xlink:href="#bm"/><use transform="matrix(0.05,0,0,0.05,47,0)" xlink:href="#bz"/><use transform="matrix(0.05,0,0,0.05,56,0)" xlink:href="#bx"/><use transform="matrix(0.05,0,0,0.05,59.95,0)" xlink:href="#br"/><use transform="matrix(0.05,0,0,0.05,63.900000000000006,0)" xlink:href="#bz"/><use transform="matrix(0.05,0,0,0.05,72.9,0)" xlink:href="#bG"/><use transform="matrix(0.05,0,0,0.05,82.9,0)" xlink:href="#bj"/><use transform="matrix(0.05,0,0,0.05,92.9,0)" xlink:href="#bx"/><use transform="matrix(0.05,0,0,0.05,96.85000000000001,0)" xlink:href="#cc"/></g><path d="M30 0v-248h187v28H63v79h144v27H63v87h162V0H30" id="cn"/><g id="ae"><use transform="matrix(0.05,0,0,0.05,0,0)" xlink:href="#cm"/><use transform="matrix(0.05,0,0,0.05,10.5,0)" xlink:href="#bJ"/><use transform="matrix(0.05,0,0,0.05,20.5,0)" xlink:href="#bk"/><use transform="matrix(0.05,0,0,0.05,30.5,0)" xlink:href="#bo"/><use transform="matrix(0.05,0,0,0.05,36.45,0)" xlink:href="#bm"/><use transform="matrix(0.05,0,0,0.05,46.45,0)" xlink:href="#bz"/><use transform="matrix(0.05,0,0,0.05,55.45,0)" xlink:href="#bm"/><use transform="matrix(0.05,0,0,0.05,65.45,0)" xlink:href="#bu"/><use transform="matrix(0.05,0,0,0.05,70.45,0)" xlink:href="#cn"/><use transform="matrix(0.05,0,0,0.05,82.45,0)" xlink:href="#bu"/><use transform="matrix(0.05,0,0,0.05,87.45,0)" xlink:href="#cb"/><use transform="matrix(0.05,0,0,0.05,93.4,0)" xlink:href="#br"/><use transform="matrix(0.05,0,0,0.05,97.35000000000001,0)" xlink:href="#bj"/><use transform="matrix(0.05,0,0,0.05,107.35000000000001,0)" xlink:href="#bu"/></g><g id="af"><use transform="matrix(0.05,0,0,0.05,0,0)" xlink:href="#bM"/><use transform="matrix(0.05,0,0,0.05,9,0)" xlink:href="#bQ"/><use transform="matrix(0.05,0,0,0.05,14,0)" xlink:href="#br"/><use transform="matrix(0.05,0,0,0.05,17.95,0)" xlink:href="#bj"/><use transform="matrix(0.05,0,0,0.05,27.950000000000003,0)" xlink:href="#bu"/></g><g id="ag"><use transform="matrix(0.05,0,0,0.05,0,0)" xlink:href="#bs"/><use transform="matrix(0.05,0,0,0.05,9,0)" xlink:href="#cc"/></g><path d="M160-131c35 5 61 23 61 61C221 17 115-2 30 0v-248c76 3 177-17 177 60 0 33-19 50-47 57zm-97-11c50-1 110 9 110-42 0-47-63-36-110-37v79zm0 115c55-2 124 14 124-45 0-56-70-42-124-44v89" id="co"/><g id="ah"><use transform="matrix(0.05,0,0,0.05,0,0)" xlink:href="#co"/><use transform="matrix(0.05,0,0,0.05,12,0)" xlink:href="#bD"/><use transform="matrix(0.05,0,0,0.05,22,0)" xlink:href="#bu"/><use transform="matrix(0.05,0,0,0.05,27,0)" xlink:href="#bu"/><use transform="matrix(0.05,0,0,0.05,32,0)" xlink:href="#bA"/><use transform="matrix(0.05,0,0,0.05,42,0)" xlink:href="#bj"/></g><g id="ai"><use transform="matrix(0.05,0,0,0.05,0,0)" xlink:href="#bu"/><use transform="matrix(0.05,0,0,0.05,5,0)" xlink:href="#bA"/><use transform="matrix(0.05,0,0,0.05,15,0)" xlink:href="#bG"/></g><g id="aj"><use transform="matrix(0.05,0,0,0.05,0,0)" xlink:href="#bn"/><use transform="matrix(0.05,0,0,0.05,9,0)" xlink:href="#bk"/><use transform="matrix(0.05,0,0,0.05,19,0)" xlink:href="#bo"/><use transform="matrix(0.05,0,0,0.05,24.95,0)" xlink:href="#bG"/><use transform="matrix(0.05,0,0,0.05,34.95,0)" xlink:href="#bq"/><use transform="matrix(0.05,0,0,0.05,43.95,0)" xlink:href="#bm"/><use transform="matrix(0.05,0,0,0.05,53.95,0)" xlink:href="#bq"/><use transform="matrix(0.05,0,0,0.05,62.95,0)" xlink:href="#bt"/></g><g id="ak"><use transform="matrix(0.05,0,0,0.05,0,0)" xlink:href="#bU"/><use transform="matrix(0.05,0,0,0.05,12,0)" xlink:href="#bA"/><use transform="matrix(0.05,0,0,0.05,22,0)" xlink:href="#bD"/><use transform="matrix(0.05,0,0,0.05,32,0)" xlink:href="#bj"/><use transform="matrix(0.05,0,0,0.05,42,0)" xlink:href="#ch"/><use transform="matrix(0.05,0,0,0.05,52,0)" xlink:href="#bl"/><use transform="matrix(0.05,0,0,0.05,64,0)" xlink:href="#bx"/><use transform="matrix(0.05,0,0,0.05,67.95,0)" xlink:href="#bk"/><use transform="matrix(0.05,0,0,0.05,77.95,0)" xlink:href="#bs"/><use transform="matrix(0.05,0,0,0.05,86.95,0)" xlink:href="#bm"/><use transform="matrix(0.05,0,0,0.05,96.95,0)" xlink:href="#bo"/></g><g id="al"><use transform="matrix(0.05,0,0,0.05,0,0)" xlink:href="#bA"/><use transform="matrix(0.05,0,0,0.05,10,0)" xlink:href="#bs"/><use transform="matrix(0.05,0,0,0.05,19,0)" xlink:href="#bD"/><use transform="matrix(0.05,0,0,0.05,29,0)" xlink:href="#bj"/><use transform="matrix(0.05,0,0,0.05,39,0)" xlink:href="#bq"/><use transform="matrix(0.05,0,0,0.05,48,0)" xlink:href="#bA"/><use transform="matrix(0.05,0,0,0.05,58,0)" xlink:href="#bj"/><use transform="matrix(0.05,0,0,0.05,68,0)" xlink:href="#bD"/><use transform="matrix(0.05,0,0,0.05,78,0)" xlink:href="#bt"/></g><g id="am"><use transform="matrix(0.05,0,0,0.05,0,0)" xlink:href="#bz"/><use transform="matrix(0.05,0,0,0.05,9,0)" xlink:href="#bA"/><use transform="matrix(0.05,0,0,0.05,19,0)" xlink:href="#bj"/><use transform="matrix(0.05,0,0,0.05,29,0)" xlink:href="#bD"/><use transform="matrix(0.05,0,0,0.05,39,0)" xlink:href="#cl"/><use transform="matrix(0.05,0,0,0.05,51,0)" xlink:href="#bQ"/><use transform="matrix(0.05,0,0,0.05,56,0)" xlink:href="#bz"/><use transform="matrix(0.05,0,0,0.05,65,0)" xlink:href="#bA"/><use transform="matrix(0.05,0,0,0.05,75,0)" xlink:href="#bj"/><use transform="matrix(0.05,0,0,0.05,85,0)" xlink:href="#bD"/><use transform="matrix(0.05,0,0,0.05,95,0)" xlink:href="#by"/><use transform="matrix(0.05,0,0,0.05,109.95,0)" xlink:href="#bT"/></g><g id="an"><use transform="matrix(0.05,0,0,0.05,0,0)" xlink:href="#bJ"/><use transform="matrix(0.05,0,0,0.05,10,0)" xlink:href="#bY"/><use transform="matrix(0.05,0,0,0.05,15,0)" xlink:href="#bO"/><use transform="matrix(0.05,0,0,0.05,24,0)" xlink:href="#cf"/><use transform="matrix(0.05,0,0,0.05,34,0)" xlink:href="#cl"/><use transform="matrix(0.05,0,0,0.05,46,0)" xlink:href="#bt"/></g><g id="ao"><use transform="matrix(0.05,0,0,0.05,0,0)" xlink:href="#bv"/><use transform="matrix(0.05,0,0,0.05,10.5,0)" xlink:href="#bZ"/></g><g id="ap"><use transform="matrix(0.05,0,0,0.05,0,0)" xlink:href="#bJ"/><use transform="matrix(0.05,0,0,0.05,10,0)" xlink:href="#bY"/><use transform="matrix(0.05,0,0,0.05,15,0)" xlink:href="#bO"/><use transform="matrix(0.05,0,0,0.05,24,0)" xlink:href="#cf"/><use transform="matrix(0.05,0,0,0.05,34,0)" xlink:href="#bs"/><use transform="matrix(0.05,0,0,0.05,43,0)" xlink:href="#bt"/></g><g id="aq"><use transform="matrix(0.05,0,0,0.05,0,0)" xlink:href="#bv"/><use transform="matrix(0.05,0,0,0.05,10.5,0)" xlink:href="#bp"/><use transform="matrix(0.05,0,0,0.05,16.45,0)" xlink:href="#bZ"/></g><g id="ar"><use transform="matrix(0.05,0,0,0.05,0,0)" xlink:href="#bJ"/><use transform="matrix(0.05,0,0,0.05,10,0)" xlink:href="#bY"/><use transform="matrix(0.05,0,0,0.05,15,0)" xlink:href="#bO"/><use transform="matrix(0.05,0,0,0.05,24,0)" xlink:href="#bt"/></g><path d="M101-234c-31-9-42 10-38 44h38v23H63V0H32v-167H5v-23h27c-7-52 17-82 69-68v24" id="cp"/><g id="as"><use transform="matrix(0.05,0,0,0.05,0,0)" xlink:href="#cp"/><use transform="matrix(0.05,0,0,0.05,5,0)" xlink:href="#bx"/><use transform="matrix(0.05,0,0,0.05,8.95,0)" xlink:href="#bA"/><use transform="matrix(0.05,0,0,0.05,18.95,0)" xlink:href="#bk"/><use transform="matrix(0.05,0,0,0.05,28.950000000000003,0)" xlink:href="#bu"/><use transform="matrix(0.05,0,0,0.05,33.95,0)" xlink:href="#bv"/><use transform="matrix(0.05,0,0,0.05,44.45,0)" xlink:href="#bZ"/></g><path d="M197 0v-115H63V0H30v-248h33v105h134v-105h34V0h-34" id="cq"/><g id="at"><use transform="matrix(0.05,0,0,0.05,0,0)" xlink:href="#bk"/><use transform="matrix(0.05,0,0,0.05,10,0)" xlink:href="#bo"/><use transform="matrix(0.05,0,0,0.05,15.949999999999998,0)" xlink:href="#bu"/><use transform="matrix(0.05,0,0,0.05,20.95,0)" xlink:href="#bY"/><use transform="matrix(0.05,0,0,0.05,25.950000000000003,0)" xlink:href="#cq"/><use transform="matrix(0.05,0,0,0.05,38.9,0)" xlink:href="#bY"/><use transform="matrix(0.05,0,0,0.05,43.9,0)" xlink:href="#bO"/><use transform="matrix(0.05,0,0,0.05,52.900000000000006,0)" xlink:href="#bt"/></g><g id="au"><use transform="matrix(0.05,0,0,0.05,0,0)" xlink:href="#cp"/><use transform="matrix(0.05,0,0,0.05,5,0)" xlink:href="#bx"/><use transform="matrix(0.05,0,0,0.05,8.95,0)" xlink:href="#bA"/><use transform="matrix(0.05,0,0,0.05,18.95,0)" xlink:href="#bk"/><use transform="matrix(0.05,0,0,0.05,28.950000000000003,0)" xlink:href="#bu"/></g><g id="av"><use transform="matrix(0.05,0,0,0.05,0,0)" xlink:href="#cm"/><use transform="matrix(0.05,0,0,0.05,10.5,0)" xlink:href="#bu"/><use transform="matrix(0.05,0,0,0.05,15.5,0)" xlink:href="#bA"/><use transform="matrix(0.05,0,0,0.05,25.5,0)" xlink:href="#bG"/><use transform="matrix(0.05,0,0,0.05,35.5,0)" xlink:href="#cb"/><use transform="matrix(0.05,0,0,0.05,41.45,0)" xlink:href="#cc"/></g><g id="aw"><use transform="matrix(0.05,0,0,0.05,0,0)" xlink:href="#cm"/><use transform="matrix(0.05,0,0,0.05,10.5,0)" xlink:href="#bz"/><use transform="matrix(0.05,0,0,0.05,19.5,0)" xlink:href="#bA"/><use transform="matrix(0.05,0,0,0.05,29.5,0)" xlink:href="#bj"/><use transform="matrix(0.05,0,0,0.05,39.5,0)" xlink:href="#bD"/><use transform="matrix(0.05,0,0,0.05,49.5,0)" xlink:href="#by"/><use transform="matrix(0.05,0,0,0.05,64.45,0)" xlink:href="#bx"/><use transform="matrix(0.05,0,0,0.05,68.4,0)" xlink:href="#bk"/><use transform="matrix(0.05,0,0,0.05,78.4,0)" xlink:href="#by"/><use transform="matrix(0.05,0,0,0.05,93.35000000000001,0)" xlink:href="#bk"/><use transform="matrix(0.05,0,0,0.05,103.35000000000001,0)" xlink:href="#cb"/><use transform="matrix(0.05,0,0,0.05,109.30000000000001,0)" xlink:href="#br"/><use transform="matrix(0.05,0,0,0.05,113.25,0)" xlink:href="#bj"/><use transform="matrix(0.05,0,0,0.05,123.25,0)" xlink:href="#bu"/><use transform="matrix(0.05,0,0,0.05,128.25,0)" xlink:href="#bM"/><use transform="matrix(0.05,0,0,0.05,137.25,0)" xlink:href="#bQ"/><use transform="matrix(0.05,0,0,0.05,142.25,0)" xlink:href="#br"/><use transform="matrix(0.05,0,0,0.05,146.2,0)" xlink:href="#bj"/><use transform="matrix(0.05,0,0,0.05,156.2,0)" xlink:href="#bu"/></g><g id="ax"><use transform="matrix(0.05,0,0,0.05,0,0)" xlink:href="#bs"/><use transform="matrix(0.05,0,0,0.05,7.65,0)" xlink:href="#bQ"/><use transform="matrix(0.05,0,0,0.05,12.65,0)" xlink:href="#br"/><use transform="matrix(0.05,0,0,0.05,16.6,0)" xlink:href="#bj"/><use transform="matrix(0.05,0,0,0.05,26.6,0)" xlink:href="#bu"/></g><g id="ay"><use transform="matrix(0.05,0,0,0.05,0,0)" xlink:href="#bo"/><use transform="matrix(0.05,0,0,0.05,5.95,0)" xlink:href="#bF"/><use transform="matrix(0.05,0,0,0.05,15.949999999999998,0)" xlink:href="#bm"/><use transform="matrix(0.05,0,0,0.05,25.950000000000003,0)" xlink:href="#bj"/><use transform="matrix(0.05,0,0,0.05,35.95,0)" xlink:href="#cc"/></g><g id="az"><use transform="matrix(0.05,0,0,0.05,0,0)" xlink:href="#bo"/><use transform="matrix(0.05,0,0,0.05,5.95,0)" xlink:href="#bI"/><use transform="matrix(0.05,0,0,0.05,14.9,0)" xlink:href="#bA"/><use transform="matrix(0.05,0,0,0.05,24.900000000000002,0)" xlink:href="#bG"/><use transform="matrix(0.05,0,0,0.05,34.900000000000006,0)" xlink:href="#bQ"/></g><g id="aA"><use transform="matrix(0.05,0,0,0.05,0,0)" xlink:href="#bo"/><use transform="matrix(0.05,0,0,0.05,5.95,0)" xlink:href="#co"/><use transform="matrix(0.05,0,0,0.05,17.95,0)" xlink:href="#bA"/><use transform="matrix(0.05,0,0,0.05,27.950000000000003,0)" xlink:href="#bu"/><use transform="matrix(0.05,0,0,0.05,32.95,0)" xlink:href="#bu"/><use transform="matrix(0.05,0,0,0.05,37.95,0)" xlink:href="#bA"/><use transform="matrix(0.05,0,0,0.05,47.95,0)" xlink:href="#by"/><use transform="matrix(0.05,0,0,0.05,62.900000000000006,0)" xlink:href="#bQ"/></g><g id="aB"><use transform="matrix(0.05,0,0,0.05,0,0)" xlink:href="#bo"/><use transform="matrix(0.05,0,0,0.05,5.95,0)" xlink:href="#cg"/><use transform="matrix(0.05,0,0,0.05,15.949999999999998,0)" xlink:href="#bm"/><use transform="matrix(0.05,0,0,0.05,25.950000000000003,0)" xlink:href="#cp"/><use transform="matrix(0.05,0,0,0.05,30.950000000000003,0)" xlink:href="#bu"/><use transform="matrix(0.05,0,0,0.05,35.95,0)" xlink:href="#bQ"/></g><path d="M233-177c-1 41-23 64-60 70L243 0h-38l-65-103H63V0H30v-248c88 3 205-21 203 71zM63-129c60-2 137 13 137-47 0-61-80-42-137-45v92" id="cr"/><g id="aC"><use transform="matrix(0.05,0,0,0.05,0,0)" xlink:href="#bo"/><use transform="matrix(0.05,0,0,0.05,5.95,0)" xlink:href="#cr"/><use transform="matrix(0.05,0,0,0.05,18.900000000000002,0)" xlink:href="#br"/><use transform="matrix(0.05,0,0,0.05,22.85,0)" xlink:href="#bF"/><use transform="matrix(0.05,0,0,0.05,32.85,0)" xlink:href="#bJ"/><use transform="matrix(0.05,0,0,0.05,42.85,0)" xlink:href="#bu"/><use transform="matrix(0.05,0,0,0.05,47.85,0)" xlink:href="#bQ"/></g><g id="aD"><use transform="matrix(0.05,0,0,0.05,0,0)" xlink:href="#bG"/><use transform="matrix(0.05,0,0,0.05,10,0)" xlink:href="#bj"/><use transform="matrix(0.05,0,0,0.05,20,0)" xlink:href="#bx"/><use transform="matrix(0.05,0,0,0.05,23.95,0)" xlink:href="#bI"/><use transform="matrix(0.05,0,0,0.05,32.9,0)" xlink:href="#bA"/><use transform="matrix(0.05,0,0,0.05,42.9,0)" xlink:href="#bG"/><use transform="matrix(0.05,0,0,0.05,52.900000000000006,0)" xlink:href="#bQ"/></g><g id="aE"><use transform="matrix(0.05,0,0,0.05,0,0)" xlink:href="#bG"/><use transform="matrix(0.05,0,0,0.05,10,0)" xlink:href="#bj"/><use transform="matrix(0.05,0,0,0.05,20,0)" xlink:href="#bx"/><use transform="matrix(0.05,0,0,0.05,23.95,0)" xlink:href="#co"/><use transform="matrix(0.05,0,0,0.05,35.95,0)" xlink:href="#bA"/><use transform="matrix(0.05,0,0,0.05,45.95,0)" xlink:href="#bu"/><use transform="matrix(0.05,0,0,0.05,50.95,0)" xlink:href="#bu"/><use transform="matrix(0.05,0,0,0.05,55.95,0)" xlink:href="#bA"/><use transform="matrix(0.05,0,0,0.05,65.95,0)" xlink:href="#by"/><use transform="matrix(0.05,0,0,0.05,80.9,0)" xlink:href="#bQ"/></g><g id="aF"><use transform="matrix(0.05,0,0,0.05,0,0)" xlink:href="#bG"/><use transform="matrix(0.05,0,0,0.05,10,0)" xlink:href="#bj"/><use transform="matrix(0.05,0,0,0.05,20,0)" xlink:href="#bx"/><use transform="matrix(0.05,0,0,0.05,23.95,0)" xlink:href="#cg"/><use transform="matrix(0.05,0,0,0.05,33.95,0)" xlink:href="#bm"/><use transform="matrix(0.05,0,0,0.05,43.95,0)" xlink:href="#cp"/><use transform="matrix(0.05,0,0,0.05,48.95,0)" xlink:href="#bu"/><use transform="matrix(0.05,0,0,0.05,53.95,0)" xlink:href="#bQ"/></g><g id="aG"><use transform="matrix(0.05,0,0,0.05,0,0)" xlink:href="#bG"/><use transform="matrix(0.05,0,0,0.05,10,0)" xlink:href="#bj"/><use transform="matrix(0.05,0,0,0.05,20,0)" xlink:href="#bx"/><use transform="matrix(0.05,0,0,0.05,23.95,0)" xlink:href="#cr"/><use transform="matrix(0.05,0,0,0.05,36.9,0)" xlink:href="#br"/><use transform="matrix(0.05,0,0,0.05,40.85,0)" xlink:href="#bF"/><use transform="matrix(0.05,0,0,0.05,50.85,0)" xlink:href="#bJ"/><use transform="matrix(0.05,0,0,0.05,60.85,0)" xlink:href="#bu"/><use transform="matrix(0.05,0,0,0.05,65.85,0)" xlink:href="#cc"/></g><g id="aH"><use transform="matrix(0.05,0,0,0.05,0,0)" xlink:href="#bl"/><use transform="matrix(0.05,0,0,0.05,12,0)" xlink:href="#br"/><use transform="matrix(0.05,0,0,0.05,15.949999999999998,0)" xlink:href="#bn"/><use transform="matrix(0.05,0,0,0.05,24.95,0)" xlink:href="#bu"/><use transform="matrix(0.05,0,0,0.05,29.950000000000003,0)" xlink:href="#bD"/><use transform="matrix(0.05,0,0,0.05,39.95,0)" xlink:href="#bo"/><use transform="matrix(0.05,0,0,0.05,45.900000000000006,0)" xlink:href="#bm"/><use transform="matrix(0.05,0,0,0.05,55.900000000000006,0)" xlink:href="#co"/><use transform="matrix(0.05,0,0,0.05,67.9,0)" xlink:href="#bA"/><use transform="matrix(0.05,0,0,0.05,77.9,0)" xlink:href="#bM"/></g><g id="aI"><use transform="matrix(0.05,0,0,0.05,0,0)" xlink:href="#cj"/><use transform="matrix(0.05,0,0,0.05,14.950000000000001,0)" xlink:href="#bm"/><use transform="matrix(0.05,0,0,0.05,24.950000000000003,0)" xlink:href="#ch"/><use transform="matrix(0.05,0,0,0.05,34.95,0)" xlink:href="#br"/><use transform="matrix(0.05,0,0,0.05,38.900000000000006,0)" xlink:href="#bk"/></g><path d="M24-231v-30h32v30H24zM-9 49c24 4 33-6 33-30v-209h32V24c2 40-23 58-65 49V49" id="cs"/><g id="aJ"><use transform="matrix(0.05,0,0,0.05,0,0)" xlink:href="#bW"/><use transform="matrix(0.05,0,0,0.05,14,0)" xlink:href="#bC"/><use transform="matrix(0.05,0,0,0.05,24,0)" xlink:href="#cs"/><use transform="matrix(0.05,0,0,0.05,27.950000000000003,0)" xlink:href="#bm"/><use transform="matrix(0.05,0,0,0.05,37.95,0)" xlink:href="#bn"/><use transform="matrix(0.05,0,0,0.05,46.95,0)" xlink:href="#bu"/></g><path d="M143 4C61 4 22-44 18-125c-5-107 100-154 193-111 17 8 29 25 37 43l-32 9c-13-25-37-40-76-40-61 0-88 39-88 99 0 61 29 100 91 101 35 0 62-11 79-27v-45h-74v-28h105v86C228-13 192 4 143 4" id="ct"/><g id="aK"><use transform="matrix(0.05,0,0,0.05,0,0)" xlink:href="#ct"/><use transform="matrix(0.05,0,0,0.05,14,0)" xlink:href="#bo"/><use transform="matrix(0.05,0,0,0.05,19.95,0)" xlink:href="#bA"/><use transform="matrix(0.05,0,0,0.05,29.950000000000003,0)" xlink:href="#bD"/><use transform="matrix(0.05,0,0,0.05,39.95,0)" xlink:href="#bC"/></g><g id="aL"><use transform="matrix(0.05,0,0,0.05,0,0)" xlink:href="#bC"/><use transform="matrix(0.05,0,0,0.05,10,0)" xlink:href="#bA"/><use transform="matrix(0.05,0,0,0.05,20,0)" xlink:href="#bM"/></g><g id="aM"><use transform="matrix(0.05,0,0,0.05,0,0)" xlink:href="#bq"/><use transform="matrix(0.05,0,0,0.05,9,0)" xlink:href="#bz"/><use transform="matrix(0.05,0,0,0.05,18,0)" xlink:href="#bA"/><use transform="matrix(0.05,0,0,0.05,28,0)" xlink:href="#bo"/><use transform="matrix(0.05,0,0,0.05,33.95,0)" xlink:href="#bI"/><use transform="matrix(0.05,0,0,0.05,42.900000000000006,0)" xlink:href="#bk"/><use transform="matrix(0.05,0,0,0.05,52.900000000000006,0)" xlink:href="#bJ"/><use transform="matrix(0.05,0,0,0.05,62.900000000000006,0)" xlink:href="#bu"/><use transform="matrix(0.05,0,0,0.05,67.9,0)" xlink:href="#bk"/><use transform="matrix(0.05,0,0,0.05,77.9,0)" xlink:href="#bq"/><use transform="matrix(0.05,0,0,0.05,86.9,0)" xlink:href="#bY"/></g><g id="aN"><use transform="matrix(0.05,0,0,0.05,0,0)" xlink:href="#bq"/><use transform="matrix(0.05,0,0,0.05,9,0)" xlink:href="#bk"/><use transform="matrix(0.05,0,0,0.05,19,0)" xlink:href="#bj"/><use transform="matrix(0.05,0,0,0.05,29,0)" xlink:href="#br"/><use transform="matrix(0.05,0,0,0.05,32.95,0)" xlink:href="#bs"/><use transform="matrix(0.05,0,0,0.05,41.95,0)" xlink:href="#bm"/></g><g id="aO"><use transform="matrix(0.05,0,0,0.05,0,0)" xlink:href="#by"/><use transform="matrix(0.05,0,0,0.05,14.950000000000001,0)" xlink:href="#br"/><use transform="matrix(0.05,0,0,0.05,18.900000000000002,0)" xlink:href="#bx"/><use transform="matrix(0.05,0,0,0.05,22.85,0)" xlink:href="#br"/><use transform="matrix(0.05,0,0,0.05,26.8,0)" xlink:href="#bq"/><use transform="matrix(0.05,0,0,0.05,35.8,0)" xlink:href="#bk"/><use transform="matrix(0.05,0,0,0.05,45.8,0)" xlink:href="#bj"/><use transform="matrix(0.05,0,0,0.05,55.79999999999999,0)" xlink:href="#br"/><use transform="matrix(0.05,0,0,0.05,59.75,0)" xlink:href="#bs"/><use transform="matrix(0.05,0,0,0.05,68.75,0)" xlink:href="#bm"/></g><g id="aP"><use transform="matrix(0.05,0,0,0.05,0,0)" xlink:href="#bu"/><use transform="matrix(0.05,0,0,0.05,5,0)" xlink:href="#bk"/><use transform="matrix(0.05,0,0,0.05,15,0)" xlink:href="#by"/><use transform="matrix(0.05,0,0,0.05,29.950000000000003,0)" xlink:href="#bk"/><use transform="matrix(0.05,0,0,0.05,39.95,0)" xlink:href="#by"/><use transform="matrix(0.05,0,0,0.05,54.900000000000006,0)" xlink:href="#bt"/></g><g id="aQ"><use transform="matrix(0.05,0,0,0.05,0,0)" xlink:href="#bC"/><use transform="matrix(0.05,0,0,0.05,10,0)" xlink:href="#bD"/><use transform="matrix(0.05,0,0,0.05,20,0)" xlink:href="#bu"/><use transform="matrix(0.05,0,0,0.05,25,0)" xlink:href="#bu"/><use transform="matrix(0.05,0,0,0.05,30,0)" xlink:href="#bA"/><use transform="matrix(0.05,0,0,0.05,40,0)" xlink:href="#bj"/></g><g id="aR"><use transform="matrix(0.05,0,0,0.05,0,0)" xlink:href="#bx"/><use transform="matrix(0.05,0,0,0.05,3.95,0)" xlink:href="#br"/><use transform="matrix(0.05,0,0,0.05,7.9,0)" xlink:href="#bq"/><use transform="matrix(0.05,0,0,0.05,16.9,0)" xlink:href="#bu"/><use transform="matrix(0.05,0,0,0.05,21.9,0)" xlink:href="#bm"/></g><g id="aS"><use transform="matrix(0.05,0,0,0.05,0,0)" xlink:href="#bt"/><use transform="matrix(0.05,0,0,0.05,5,0)" xlink:href="#cg"/><use transform="matrix(0.05,0,0,0.05,15,0)" xlink:href="#br"/><use transform="matrix(0.05,0,0,0.05,18.95,0)" xlink:href="#bq"/><use transform="matrix(0.05,0,0,0.05,27.950000000000003,0)" xlink:href="#bu"/><use transform="matrix(0.05,0,0,0.05,32.95,0)" xlink:href="#co"/><use transform="matrix(0.05,0,0,0.05,44.95,0)" xlink:href="#bA"/><use transform="matrix(0.05,0,0,0.05,54.95,0)" xlink:href="#bM"/></g><g id="aT"><use transform="matrix(0.05,0,0,0.05,0,0)" xlink:href="#bk"/><use transform="matrix(0.05,0,0,0.05,10,0)" xlink:href="#ch"/><use transform="matrix(0.05,0,0,0.05,20,0)" xlink:href="#bt"/></g><g id="aU"><use transform="matrix(0.05,0,0,0.05,0,0)" xlink:href="#bI"/><use transform="matrix(0.05,0,0,0.05,8.950000000000001,0)" xlink:href="#bm"/><use transform="matrix(0.05,0,0,0.05,18.950000000000003,0)" xlink:href="#bM"/><use transform="matrix(0.05,0,0,0.05,27.950000000000003,0)" xlink:href="#bu"/><use transform="matrix(0.05,0,0,0.05,32.95,0)" xlink:href="#bC"/><use transform="matrix(0.05,0,0,0.05,42.95,0)" xlink:href="#bA"/><use transform="matrix(0.05,0,0,0.05,52.95,0)" xlink:href="#bM"/></g><use transform="matrix(0.05,0,0,0.05,0,0)" xlink:href="#cm" id="aV"/><g id="aW"><use transform="matrix(0.05,0,0,0.05,0,0)" xlink:href="#bq"/><use transform="matrix(0.05,0,0,0.05,9,0)" xlink:href="#bz"/><use transform="matrix(0.05,0,0,0.05,18,0)" xlink:href="#bA"/><use transform="matrix(0.05,0,0,0.05,28,0)" xlink:href="#bo"/><use transform="matrix(0.05,0,0,0.05,33.95,0)" xlink:href="#bI"/><use transform="matrix(0.05,0,0,0.05,42.900000000000006,0)" xlink:href="#bk"/><use transform="matrix(0.05,0,0,0.05,52.900000000000006,0)" xlink:href="#bJ"/><use transform="matrix(0.05,0,0,0.05,62.900000000000006,0)" xlink:href="#bu"/><use transform="matrix(0.05,0,0,0.05,67.9,0)" xlink:href="#bk"/><use transform="matrix(0.05,0,0,0.05,77.9,0)" xlink:href="#bq"/><use transform="matrix(0.05,0,0,0.05,86.9,0)" xlink:href="#bY"/><use transform="matrix(0.05,0,0,0.05,91.9,0)" xlink:href="#cb"/><use transform="matrix(0.05,0,0,0.05,97.85000000000001,0)" xlink:href="#cc"/></g><g id="aX"><use transform="matrix(0.05,0,0,0.05,0,0)" xlink:href="#cm"/><use transform="matrix(0.05,0,0,0.05,10.5,0)" xlink:href="#bq"/><use transform="matrix(0.05,0,0,0.05,19.5,0)" xlink:href="#bz"/><use transform="matrix(0.05,0,0,0.05,28.5,0)" xlink:href="#bA"/><use transform="matrix(0.05,0,0,0.05,38.5,0)" xlink:href="#bo"/><use transform="matrix(0.05,0,0,0.05,44.45,0)" xlink:href="#bI"/><use transform="matrix(0.05,0,0,0.05,53.400000000000006,0)" xlink:href="#bk"/><use transform="matrix(0.05,0,0,0.05,63.400000000000006,0)" xlink:href="#bJ"/><use transform="matrix(0.05,0,0,0.05,73.4,0)" xlink:href="#bu"/><use transform="matrix(0.05,0,0,0.05,78.4,0)" xlink:href="#bk"/><use transform="matrix(0.05,0,0,0.05,88.4,0)" xlink:href="#bq"/><use transform="matrix(0.05,0,0,0.05,97.4,0)" xlink:href="#bY"/><use transform="matrix(0.05,0,0,0.05,102.4,0)" xlink:href="#cb"/><use transform="matrix(0.05,0,0,0.05,108.35000000000001,0)" xlink:href="#br"/><use transform="matrix(0.05,0,0,0.05,112.30000000000001,0)" xlink:href="#bj"/><use transform="matrix(0.05,0,0,0.05,122.30000000000001,0)" xlink:href="#bu"/></g><g id="aY"><use transform="matrix(0.05,0,0,0.05,0,0)" xlink:href="#bq"/><use transform="matrix(0.05,0,0,0.05,9,0)" xlink:href="#bQ"/><use transform="matrix(0.05,0,0,0.05,14,0)" xlink:href="#br"/><use transform="matrix(0.05,0,0,0.05,17.95,0)" xlink:href="#bj"/><use transform="matrix(0.05,0,0,0.05,27.950000000000003,0)" xlink:href="#bu"/></g><g id="aZ"><use transform="matrix(0.05,0,0,0.05,0,0)" xlink:href="#by"/><use transform="matrix(0.05,0,0,0.05,14.950000000000001,0)" xlink:href="#bq"/><use transform="matrix(0.05,0,0,0.05,23.950000000000003,0)" xlink:href="#bj"/><use transform="matrix(0.05,0,0,0.05,33.95,0)" xlink:href="#cc"/></g><g id="ba"><use transform="matrix(0.05,0,0,0.05,0,0)" xlink:href="#bz"/><use transform="matrix(0.05,0,0,0.05,9,0)" xlink:href="#bk"/><use transform="matrix(0.05,0,0,0.05,19,0)" xlink:href="#bs"/><use transform="matrix(0.05,0,0,0.05,28,0)" xlink:href="#ch"/><use transform="matrix(0.05,0,0,0.05,38,0)" xlink:href="#bm"/><use transform="matrix(0.05,0,0,0.05,48,0)" xlink:href="#bu"/><use transform="matrix(0.05,0,0,0.05,53,0)" xlink:href="#cf"/><use transform="matrix(0.05,0,0,0.05,63,0)" xlink:href="#ci"/><use transform="matrix(0.05,0,0,0.05,75.95,0)" xlink:href="#bx"/><use transform="matrix(0.05,0,0,0.05,79.9,0)" xlink:href="#br"/><use transform="matrix(0.05,0,0,0.05,83.85000000000001,0)" xlink:href="#bn"/><use transform="matrix(0.05,0,0,0.05,92.85000000000001,0)" xlink:href="#bz"/></g><g id="bb"><use transform="matrix(0.05,0,0,0.05,0,0)" xlink:href="#bu"/><use transform="matrix(0.05,0,0,0.05,5,0)" xlink:href="#bk"/><use transform="matrix(0.05,0,0,0.05,15,0)" xlink:href="#by"/><use transform="matrix(0.05,0,0,0.05,29.950000000000003,0)" xlink:href="#bk"/><use transform="matrix(0.05,0,0,0.05,39.95,0)" xlink:href="#by"/><use transform="matrix(0.05,0,0,0.05,54.900000000000006,0)" xlink:href="#cf"/><use transform="matrix(0.05,0,0,0.05,64.9,0)" xlink:href="#ci"/><use transform="matrix(0.05,0,0,0.05,77.85000000000001,0)" xlink:href="#bx"/><use transform="matrix(0.05,0,0,0.05,81.80000000000001,0)" xlink:href="#br"/><use transform="matrix(0.05,0,0,0.05,85.75000000000001,0)" xlink:href="#bn"/><use transform="matrix(0.05,0,0,0.05,94.75000000000001,0)" xlink:href="#bz"/></g><g id="bc"><use transform="matrix(0.05,0,0,0.05,0,0)" xlink:href="#bC"/><use transform="matrix(0.05,0,0,0.05,10,0)" xlink:href="#bD"/><use transform="matrix(0.05,0,0,0.05,20,0)" xlink:href="#bu"/><use transform="matrix(0.05,0,0,0.05,25,0)" xlink:href="#bA"/><use transform="matrix(0.05,0,0,0.05,35,0)" xlink:href="#bj"/><use transform="matrix(0.05,0,0,0.05,45,0)" xlink:href="#cb"/><use transform="matrix(0.05,0,0,0.05,50.95,0)" xlink:href="#cc"/></g><g id="bd"><use transform="matrix(0.05,0,0,0.05,0,0)" xlink:href="#bx"/><use transform="matrix(0.05,0,0,0.05,3.95,0)" xlink:href="#bq"/><use transform="matrix(0.05,0,0,0.05,12.949999999999998,0)" xlink:href="#bu"/><use transform="matrix(0.05,0,0,0.05,17.95,0)" xlink:href="#bC"/><use transform="matrix(0.05,0,0,0.05,27.950000000000003,0)" xlink:href="#bA"/><use transform="matrix(0.05,0,0,0.05,37.95,0)" xlink:href="#bM"/><use transform="matrix(0.05,0,0,0.05,46.95,0)" xlink:href="#cb"/><use transform="matrix(0.05,0,0,0.05,52.900000000000006,0)" xlink:href="#cc"/></g><g id="be"><use transform="matrix(0.05,0,0,0.05,0,0)" xlink:href="#bq"/><use transform="matrix(0.05,0,0,0.05,9,0)" xlink:href="#bz"/><use transform="matrix(0.05,0,0,0.05,18,0)" xlink:href="#bA"/><use transform="matrix(0.05,0,0,0.05,28,0)" xlink:href="#bo"/><use transform="matrix(0.05,0,0,0.05,33.95,0)" xlink:href="#cb"/><use transform="matrix(0.05,0,0,0.05,39.900000000000006,0)" xlink:href="#br"/><use transform="matrix(0.05,0,0,0.05,43.85000000000001,0)" xlink:href="#bj"/><use transform="matrix(0.05,0,0,0.05,53.85,0)" xlink:href="#bu"/></g><g id="bf"><use transform="matrix(0.05,0,0,0.05,0,0)" xlink:href="#bq"/><use transform="matrix(0.05,0,0,0.05,9,0)" xlink:href="#bj"/><use transform="matrix(0.05,0,0,0.05,19,0)" xlink:href="#bQ"/><use transform="matrix(0.05,0,0,0.05,24,0)" xlink:href="#br"/><use transform="matrix(0.05,0,0,0.05,27.950000000000003,0)" xlink:href="#bj"/><use transform="matrix(0.05,0,0,0.05,37.95,0)" xlink:href="#bu"/></g><g id="bg"><use transform="matrix(0.05,0,0,0.05,0,0)" xlink:href="#ch"/><use transform="matrix(0.05,0,0,0.05,10,0)" xlink:href="#bA"/><use transform="matrix(0.05,0,0,0.05,20,0)" xlink:href="#bq"/><use transform="matrix(0.05,0,0,0.05,29,0)" xlink:href="#bs"/><use transform="matrix(0.05,0,0,0.05,38,0)" xlink:href="#bk"/><use transform="matrix(0.05,0,0,0.05,48,0)" xlink:href="#bs"/><use transform="matrix(0.05,0,0,0.05,57,0)" xlink:href="#bk"/><use transform="matrix(0.05,0,0,0.05,67,0)" xlink:href="#bO"/><use transform="matrix(0.05,0,0,0.05,76,0)" xlink:href="#cb"/><use transform="matrix(0.05,0,0,0.05,81.95,0)" xlink:href="#cc"/></g><g id="bh"><use transform="matrix(0.05,0,0,0.05,0,0)" xlink:href="#ch"/><use transform="matrix(0.05,0,0,0.05,10,0)" xlink:href="#bA"/><use transform="matrix(0.05,0,0,0.05,20,0)" xlink:href="#bq"/><use transform="matrix(0.05,0,0,0.05,29,0)" xlink:href="#bs"/><use transform="matrix(0.05,0,0,0.05,38,0)" xlink:href="#bk"/><use transform="matrix(0.05,0,0,0.05,48,0)" xlink:href="#cb"/><use transform="matrix(0.05,0,0,0.05,53.95,0)" xlink:href="#cc"/></g></defs></g></svg>